<svg version="1.1" xmlns="http://www.w3.org/2000/svg" xmlns:xlink="http://www.w3.org/1999/xlink" width="24" height="24" viewBox="0,0,256,256"><g fill="#ffffff" fill-rule="nonzero" stroke="none" stroke-width="1" stroke-linecap="butt" stroke-linejoin="miter" stroke-miterlimit="10" stroke-dasharray="" stroke-dashoffset="0" font-family="none" font-weight="none" font-size="none" text-anchor="none" style="mix-blend-mode: normal"><g transform="translate(-0.00046,0.00015) scale(10.66667,10.66667)"><path d="M11.6545,5.77578c-0.2559,-1.39538 0.4038,-2.83139 1.1984,-3.79914c0.8757,-1.06779 2.3785,-1.88665 3.6628,-1.97664c0.2169,1.46297 -0.3801,2.88836 -1.166,3.8966c-0.8431,1.08314 -2.2926,1.9231 -3.6952,1.87918zM19.1875,10.832c0.3974,-1.10871 1.1847,-2.10623 2.406,-2.77927c-1.2342,-1.54013 -2.967,-2.43428 -4.6023,-2.43428c-2.1635,0 -3.0783,1.03078 -4.581,1.03078c-1.5481,0 -2.72246,-1.03078 -4.59648,-1.03078c-1.83767,0 -3.79379,1.12006 -5.03437,3.03297c-0.45614,0.70708 -0.76513,1.58548 -0.93365,2.56388c-0.4676,2.7447 0.23089,6.3197 2.31448,9.4941c1.01307,1.5403 2.36341,3.2753 4.12748,3.2904c1.57146,0.0154 2.01724,-1.0047 4.14464,-1.0152c2.1305,-0.0121 2.5343,1.0258 4.1036,1.0108c1.7646,-0.0149 3.1893,-1.935 4.2024,-3.4751c0.7213,-1.1052 0.9941,-1.6635 1.555,-2.913c-2.8521,-1.0756 -4.0252,-4.2184 -3.1058,-6.7753z"></path></g></g></svg>