<svg width="16" height="16" viewBox="0 0 16 16" fill="none" xmlns="http://www.w3.org/2000/svg">
<path d="M5.79387 13.3327C5.67698 13.3327 5.56008 13.2896 5.4678 13.1973C5.28938 13.0189 5.28938 12.7236 5.4678 12.5452L9.47914 8.53384C9.77446 8.23852 9.77446 7.75864 9.47914 7.46332L5.4678 3.45198C5.28938 3.27356 5.28938 2.97825 5.4678 2.79983C5.64622 2.62141 5.94153 2.62141 6.11995 2.79983L10.1313 6.81117C10.4451 7.12494 10.6235 7.54946 10.6235 7.99858C10.6235 8.4477 10.4512 8.87222 10.1313 9.18599L6.11995 13.1973C6.02766 13.2835 5.91077 13.3327 5.79387 13.3327Z" fill="#69735D"/>
</svg>
