<svg version="1.1" xmlns="http://www.w3.org/2000/svg" xmlns:xlink="http://www.w3.org/1999/xlink" width="460" height="304" viewBox="0,0,256,169.17188"><g fill="#1a1c16" fill-rule="nonzero" stroke="none" stroke-width="1" stroke-linecap="butt" stroke-linejoin="miter" stroke-miterlimit="10" stroke-dasharray="" stroke-dashoffset="0" font-family="none" font-weight="none" font-size="none" text-anchor="none" style="mix-blend-mode: normal"><path d="M0,169.17188v-169.17187h256v169.17188z" id="bgRectangle"></path></g><g fill="none" fill-rule="nonzero" stroke="none" stroke-width="1" stroke-linecap="butt" stroke-linejoin="miter" stroke-miterlimit="10" stroke-dasharray="" stroke-dashoffset="0" font-family="none" font-weight="none" font-size="none" text-anchor="none" style="mix-blend-mode: normal"><g transform="translate(0.13364,-0.41088) scale(0.55652,0.55652)"><path d="M88.2271,241.722c-28.5185,-2.035 -27.3366,-25.923 -28.8265,-48.614c-3.2614,-49.67 -1.4203,-93.9818 0.6692,-143.2196c0.5363,-12.6377 3.4894,-23.458 17.4962,-27.9505c5.0163,-1.6084 10.3535,-1.5125 15.5661,-1.7744l15.7919,-0.6638l146.982,-3.1164c15.111,-0.0906 109.014,-0.4763 120.299,5.4084c5.625,2.9333 9.294,8.1596 11.184,14.0972c1.855,12.8899 2.708,26.0784 3.747,39.0607c3.483,43.5594 4.752,87.4154 1.514,131.0274c-1.058,14.252 -4.311,27.046 -21.666,29.3c-10.601,1.377 -24.658,1.785 -35.455,2.271c-4.841,0.217 -9.924,0.124 -14.72,0.81c-19.429,0.376 -38.823,2.269 -58.266,2.269v2.66l0.017,0.245c1.375,16.745 34.606,42.029 -2.045,43.79c-18.154,0.873 -37.416,1.705 -55.572,1.79c-31.763,0.147 -22.636,-10.115 -16.464,-31.283c1.283,-4.4 2.063,-8.719 2.927,-13.203c0.138,-0.697 0.28,-1.02 0.047,-1.701c-1.061,-0.603 -18.966,-0.286 -21.719,-0.312l-71.1817,-0.856c-3.4275,-0.053 -6.9018,-0.217 -10.3252,-0.035zM383.245,203.419c0.214,-2.229 0.747,-4.315 1.057,-6.512c-26.656,4.79 -64.238,5.189 -91.436,6.175l-83.863,2.881c-9.74,0.253 -19.413,0.369 -29.163,0.369l-40.087,-0.003c-14.566,-0.002 -29.117,-0.007 -43.6803,-0.325l-15.9998,-0.359c-3.388,-0.074 -6.8466,-0.304 -10.2204,0.046c0.9053,9.802 0.9032,19.483 10.3667,24.93c5.5947,3.13 17.7743,1.822 24.1138,1.871l32.469,0.371c71.199,0.909 142.172,-1.163 213.233,-5.709l13.255,-0.854c17.809,-1.137 18.676,-5.762 19.955,-22.881zM252.63,243.287v-1.565c-10.504,-0.94 -25.775,0.271 -36.497,0.573l-9.235,0.205c-3.308,0.061 -5.477,-1.084 -5.869,2.126c-1.625,8.488 -3.627,17.035 -6.621,25.151c-0.688,1.867 -3.194,7.337 -2.751,9.05c3.276,3.392 55.586,-0.28 62.507,-0.345c21.878,-0.204 15.04,-1.009 7.503,-13.099c-4.239,-6.799 -7.318,-14.274 -9.037,-22.096zM258.307,26.1307c-8.818,-0.0054 -17.694,-0.1919 -26.507,0.0162l-101.631,2.5117c-11.211,0.3903 -22.438,0.6486 -33.6417,1.1851c-28.7956,1.3787 -25.6485,5.6954 -27.1126,29.245l-1.8183,32.112c-1.0927,23.4333 -1.0616,47.0383 -0.3892,70.4843c0.324,11.297 1.5004,22.576 1.8181,33.865c8.615,1.29 18.242,0.528 26.9917,0.809c6.66,0.215 13.232,0.406 19.891,0.433l77.144,0.115c3.638,0.02 7.247,-0.278 10.88,-0.369l27.86,-0.776c44.283,-1.227 88.658,-2.625 132.832,-6.123c5.391,-0.427 14.102,-0.864 19.13,-2.062l0.152,-0.156l-0.145,-0.171l0.201,-0.087l0.032,-0.208l-0.258,-0.06l-0.021,-0.327l0.339,-0.142c2.529,-46.139 -0.31,-92.5449 -4.771,-138.4752c-1.586,-16.3283 -3.022,-18.1816 -20.814,-19.6169c-32.566,-2.6266 -67.293,-2.6723 -100.162,-2.2032z" fill="#ffffff"></path><path d="M387.389,35.8867c3.198,1.2514 5.919,3.9516 7.281,7.0967c1.87,4.3148 3.686,34.6794 4.273,43.4983l1.45,25.1403c0.626,11.452 0.787,22.912 1.025,34.373c0.367,17.636 1.792,71.129 -3.099,83.312c-5.799,14.445 -17.428,13.998 -29.983,13.99l-19.512,-0.013c-15.911,-0.008 -31.881,0.319 -47.784,0.001h-38.497v-2.66c19.443,0 38.837,-1.894 58.265,-2.269c4.796,-0.686 9.88,-0.593 14.72,-0.81c10.798,-0.486 24.855,-0.894 35.455,-2.271c17.356,-2.254 20.609,-15.048 21.667,-29.301c3.237,-43.611 1.969,-87.467 -1.515,-131.0266c-1.038,-12.9823 -1.892,-26.1708 -3.746,-39.0607z" fill="#508826"></path><path d="M368.756,52.5536c-0.007,-2.2891 0.047,-4.7902 -0.73,-6.9723c-3.734,-10.4994 -19.269,-3.9285 -22.933,-5.8611c-0.956,-0.5037 -1.328,-1.4747 -0.634,-2.3709c1.088,-1.4045 6.849,-1.1217 8.665,-1.3379c8.927,-0.6479 17.002,0.877 18.926,10.989c0.27,1.4162 1.145,9.311 0.655,10.1698c-2.116,3.7065 -3.829,-2.6501 -3.949,-4.6166z" fill="#ffffff"></path><path d="M230.01,141.227c-17.984,2.962 -26.364,-10.43 -27.864,-26.52c-1.692,-18.1447 0.678,-56.3937 25.023,-58.645c5.024,-1.2833 11.768,1.3714 15.78,4.3228c21.422,15.765 15.655,76.8492 -12.939,80.8422zM227.169,64.7916c-17.08,4.0593 -17.975,43.8274 -14.838,56.3854c2.279,9.116 8.767,12.172 17.679,10.862c22.096,-8.098 23.859,-69.7962 -2.841,-67.2474z" fill="#ffffff"></path><path d="M286.589,141.226l-0.606,0.01c-21.272,0.184 -25.741,-16.547 -25.598,-34.981c0.137,-17.7435 4.965,-50.4821 28.572,-50.1939c35.233,-0.523 34.752,81.2239 -2.368,85.1649zM287.625,65.3638c-15.98,0.806 -18.701,35.3692 -18.033,46.5232c0.754,12.613 4.119,21.175 18.033,20.151c18.567,-5.485 20.46,-38.0695 16.029,-52.8766c-1.683,-5.6266 -9.165,-16.9466 -16.029,-13.7976z" fill="#ffffff"></path><path d="M141.297,126.27c2.445,0.608 4.099,2.164 6.179,3.482c14.174,8.978 41.486,0.04 36.76,-19.553c-2.714,-11.2501 -17.191,-13.8887 -26.856,-11.2026c-3.78,1.0506 -11.375,5.3126 -12.316,-1.6826c-0.681,-5.067 1.069,-35.1772 4.259,-38.5049c2.314,-2.4132 28.323,-2.4666 32.758,-2.7497c2.707,-0.0441 8.479,-0.818 10.608,0.901c1.884,1.5215 1.94,4.734 0.392,6.5038c-2.249,2.5725 -31.727,2.6293 -36.765,3.1015c-1.499,7.6633 -2.41,15.8819 -2.337,23.6876c13.691,-3.5362 32.61,-0.2153 38.044,14.7339c10.024,27.585 -22.703,45.549 -48.107,33.368c-4.891,-2.829 -12.318,-9.865 -2.619,-12.085z" fill="#ffffff"></path><path d="M92.6836,189.396c-4.6517,0.617 -10.8094,1.667 -15.0709,-0.638c-5.147,-2.784 -4.085,-9.731 -4.1361,-14.558c-0.0215,-2.041 -1.1703,-4.991 1.6019,-5.552c3.4834,0.246 0.796,11.072 2.3835,14.949c2.5276,6.174 12.666,1.342 15.6579,2.655c1.9427,0.852 1.3801,2.741 -0.4363,3.144z" fill="#ffffff"></path><path d="M80.219,230.619c-0.9032,-4.456 -5.4913,-14.816 -1.2891,-18.609c1.2342,-1.114 36.7411,-0.278 41.0431,-0.277l97.994,0.002c16.621,-0.003 31.718,-0.415 48.259,-1.076l68.058,-2.779c12.452,-0.7 24.856,-2.04 37.239,-3.482c3.926,-0.457 7.753,-1.168 11.721,-0.98c-1.278,17.118 -2.145,21.743 -19.954,22.881l-13.255,0.853c-71.061,4.546 -142.034,6.618 -213.234,5.71l-32.468,-0.372c-6.3397,-0.049 -18.5193,1.26 -24.114,-1.871z" fill="#abd27a"></path><path d="M252.63,243.288c-11.829,1.807 -39.772,1.809 -51.601,1.338c0.392,-3.21 2.561,-2.065 5.869,-2.125l9.235,-0.205c10.723,-0.303 25.994,-1.514 36.497,-0.574z" fill="#abd27a"></path><path d="M88.2271,241.72c3.4234,-0.182 6.8976,-0.018 10.3252,0.035l71.1817,0.856c2.753,0.027 20.657,-0.291 21.718,0.312c0.234,0.681 0.092,1.005 -0.046,1.701c-22.454,0.726 -45.121,0.826 -67.585,0.523c-9.75,-0.132 -26.956,1.852 -35.5939,-3.427z" fill="#abd27a"></path><path d="M221.524,169.4c-0.054,1.633 0.717,5.009 -0.265,6.271c-0.628,0.806 -1.727,0.882 -2.489,0.207c-1.225,-1.085 -0.9,-11.281 -0.901,-13.063c0,-3.607 -1.02,-6.291 3.655,-6.517c3.272,-1.433 9.517,1.765 8.59,6.556c-0.518,2.676 -2.712,4.014 -4.814,5.423c1.578,1.113 5.461,4.18 6.007,6.082c-0.704,2.628 -2.475,1.559 -4.003,0.365c-1.827,-1.85 -3.77,-3.674 -5.78,-5.324zM222.396,159.984h-0.872c-0.013,3.394 -1.298,7.348 3.205,4.563c3.908,-2.39 1.951,-5.48 -2.333,-4.563z" fill="#ffffff"></path><path d="M192.725,173.918c2.06,0.055 4.994,-0.331 6.722,-0.18c1.124,0.097 1.648,1.862 0.922,2.646c-1.374,1.485 -9.056,1.33 -10.657,-0.087c-2.239,-1.981 -1.744,-10.79 -1.923,-14.116c-0.187,-3.457 1.342,-5.727 4.936,-5.884c2.131,-0.333 10.239,0.375 5.908,3.686c-6.747,0.038 -8.158,-2.754 -7.033,5.472c1.268,-0.104 5.487,-0.319 6.441,0.393c0.999,0.746 0.614,2.465 -0.544,2.843c-1.298,0.422 -4.377,0.097 -5.897,0.15c-0.012,1.353 -0.595,4.965 1.125,5.077z" fill="#ffffff"></path><path d="M206.555,169.942c0.038,1.21 0.748,5.895 -0.87,6.338c-1.165,0.32 -2.249,-0.063 -2.478,-1.334c-0.319,-1.759 -0.728,-16.064 0.1,-17.191c0.727,-0.987 2.305,-1.26 3.444,-1.458c4.574,-0.585 10.289,2.324 8.437,7.601c-0.835,2.381 -2.915,3.366 -5.039,4.377c1.392,2.439 4.54,3.742 5.478,6.447c-0.688,2.347 -2.282,1.959 -3.727,0.556c-1.778,-1.781 -3.538,-3.584 -5.345,-5.336zM207.233,159.982c-1.328,0.296 -0.684,4.221 -0.678,5.704c1.322,-0.194 2.421,-0.493 3.594,-1.14c4.117,-2.988 0.562,-4.546 -2.916,-4.564z" fill="#ffffff"></path><path d="M241.415,175.756c-5.275,0.17 -9.687,-3.965 -9.854,-9.231c-0.166,-5.267 3.977,-9.67 9.252,-9.833c5.271,-0.162 9.676,3.97 9.842,9.232c0.166,5.262 -3.97,9.663 -9.24,9.832zM240.685,160.41c-8.217,1.278 -6.462,13.244 1.137,11.647c7.099,-1.4 6.617,-12.981 -1.137,-11.647z" fill="#ffffff"></path><path d="M253.453,175.829c-0.586,-0.284 -1.099,-0.657 -1.337,-1.285c-0.264,-0.694 0.343,-16.033 0.596,-16.452c0.544,-0.901 1.923,-1.038 2.854,-1.191c7.569,-0.577 11.794,5.513 3.663,10.796c1.149,1.357 3.683,3.586 4.468,4.904c0.678,1.137 -0.412,4.328 -3.558,1.316c-1.13,-1.275 -2.59,-2.931 -3.911,-3.988l-0.662,-0.531c0.099,2.67 0.83,5.382 -2.113,6.431zM255.937,160.412c0.004,1.674 -0.082,3.373 0,5.043c0.878,-0.523 1.8,-1.018 2.635,-1.606c3.354,-2.515 -0.104,-3.594 -2.635,-3.437z" fill="#ffffff"></path></g></g></svg>