<svg version="1.1" xmlns="http://www.w3.org/2000/svg" xmlns:xlink="http://www.w3.org/1999/xlink" width="460" height="304" viewBox="0,0,256,169.17188"><g fill="#1a1c16" fill-rule="nonzero" stroke="none" stroke-width="1" stroke-linecap="butt" stroke-linejoin="miter" stroke-miterlimit="10" stroke-dasharray="" stroke-dashoffset="0" font-family="none" font-weight="none" font-size="none" text-anchor="none" style="mix-blend-mode: normal"><path d="M0,169.17188v-169.17187h256v169.17188z" id="bgRectangle"></path></g><g fill="none" fill-rule="nonzero" stroke="none" stroke-width="1" stroke-linecap="butt" stroke-linejoin="miter" stroke-miterlimit="10" stroke-dasharray="" stroke-dashoffset="0" font-family="none" font-weight="none" font-size="none" text-anchor="none" style="mix-blend-mode: normal"><g transform="translate(0.0004,-0.0051) scale(1,1.00006)"><g><g transform="translate(0.13364,-0.53566) scale(0.55652,0.55652)"><path d="M88.2271,242.077c-28.5185,-2.037 -27.3366,-25.961 -28.8265,-48.685c-3.2614,-49.743 -1.4203,-94.1204 0.6692,-143.4307c0.5363,-12.6564 3.4894,-23.4927 17.4962,-27.9917c5.0163,-1.6108 10.3535,-1.5147 15.5661,-1.777l15.7919,-0.6648l146.982,-3.121c15.111,-0.0908 109.014,-0.4771 120.299,5.4163c5.625,2.9377 9.294,8.1717 11.184,14.1181c1.855,12.9088 2.708,26.1168 3.747,39.1181c3.483,43.6237 4.752,87.5447 1.514,131.2197c-1.058,14.274 -4.311,27.087 -21.666,29.344c-10.601,1.379 -24.658,1.788 -35.455,2.274c-4.841,0.217 -9.924,0.125 -14.72,0.811c-19.429,0.377 -38.823,2.273 -58.266,2.273v2.664l0.017,0.245c1.375,16.77 34.606,42.091 -2.045,43.854c-18.154,0.875 -37.416,1.708 -55.572,1.793c-31.763,0.147 -22.636,-10.129 -16.464,-31.329c1.283,-4.406 2.063,-8.732 2.927,-13.223c0.138,-0.697 0.28,-1.021 0.047,-1.703c-1.061,-0.604 -18.966,-0.286 -21.719,-0.313l-71.1817,-0.857c-3.4275,-0.053 -6.9018,-0.217 -10.3252,-0.035zM383.245,203.718c0.214,-2.232 0.747,-4.321 1.057,-6.522c-26.656,4.797 -64.238,5.197 -91.436,6.184l-83.863,2.886c-9.74,0.253 -19.413,0.369 -29.163,0.369l-40.087,-0.003c-14.566,-0.002 -29.117,-0.007 -43.6803,-0.326l-15.9998,-0.359c-3.388,-0.074 -6.8466,-0.305 -10.2204,0.047c0.9053,9.815 0.9032,19.511 10.3667,24.966c5.5947,3.135 17.7743,1.824 24.1138,1.874l32.469,0.372c71.199,0.91 142.172,-1.166 213.233,-5.719l13.255,-0.854c17.809,-1.139 18.676,-5.771 19.955,-22.915zM252.63,243.645v-1.568c-10.504,-0.941 -25.775,0.271 -36.497,0.574l-9.235,0.206c-3.308,0.06 -5.477,-1.086 -5.869,2.128c-1.625,8.501 -3.627,17.06 -6.621,25.189c-0.688,1.87 -3.194,7.348 -2.751,9.063c3.276,3.397 55.586,-0.28 62.507,-0.345c21.878,-0.205 15.04,-1.011 7.503,-13.118c-4.239,-6.81 -7.318,-14.296 -9.037,-22.129zM258.307,26.1686c-8.818,-0.0054 -17.694,-0.1923 -26.507,0.0162l-101.631,2.5154c-11.211,0.3908 -22.438,0.6495 -33.6417,1.1868c-28.7956,1.3808 -25.6485,5.7038 -27.1126,29.2881l-1.8183,32.1593c-1.0927,23.4676 -1.0616,47.1076 -0.3892,70.5886c0.324,11.313 1.5004,22.608 1.8181,33.915c8.615,1.291 18.242,0.528 26.9917,0.81c6.66,0.215 13.232,0.406 19.891,0.433l77.144,0.115c3.638,0.021 7.247,-0.278 10.88,-0.369l27.86,-0.777c44.283,-1.229 88.658,-2.629 132.832,-6.133c5.391,-0.427 14.102,-0.865 19.13,-2.064l0.152,-0.157l-0.145,-0.171l0.201,-0.087l0.032,-0.208l-0.258,-0.06l-0.021,-0.328l0.339,-0.142c2.529,-46.207 -0.31,-92.6813 -4.771,-138.6792c-1.586,-16.3523 -3.022,-18.2084 -20.814,-19.6458c-32.566,-2.6305 -67.293,-2.6763 -100.162,-2.2064z" fill="#ffffff"></path><path d="M387.389,35.9414c3.198,1.2532 5.919,3.9574 7.281,7.1071c1.87,4.3212 3.686,34.7305 4.273,43.5624l1.45,25.1771c0.626,11.469 0.787,22.946 1.025,34.424c0.367,17.661 1.792,71.234 -3.099,83.434c-5.799,14.467 -17.428,14.019 -29.983,14.011l-19.512,-0.013c-15.911,-0.008 -31.881,0.32 -47.784,0.001h-38.497v-2.664c19.443,0 38.837,-1.896 58.265,-2.273c4.796,-0.686 9.88,-0.593 14.72,-0.811c10.798,-0.486 24.855,-0.895 35.455,-2.274c17.356,-2.257 20.609,-15.07 21.667,-29.343c3.237,-43.676 1.969,-87.597 -1.515,-131.2204c-1.038,-13.0014 -1.892,-26.2094 -3.746,-39.1182z" fill="#508826"></path><path d="M368.756,52.6328c-0.007,-2.2924 0.047,-4.7972 -0.73,-6.9826c-3.734,-10.5148 -19.269,-3.9342 -22.933,-5.8697c-0.956,-0.5044 -1.328,-1.4768 -0.634,-2.3743c1.088,-1.4066 6.849,-1.1234 8.665,-1.3399c8.927,-0.6489 17.002,0.8782 18.926,11.0051c0.27,1.4183 1.145,9.3248 0.655,10.1849c-2.116,3.7119 -3.829,-2.654 -3.949,-4.6235z" fill="#ffffff"></path><path d="M92.6836,189.673c-4.6517,0.617 -10.8094,1.669 -15.0709,-0.639c-5.147,-2.789 -4.085,-9.746 -4.1361,-14.58c-0.0215,-2.044 -1.1703,-4.998 1.6019,-5.559c3.4834,0.246 0.796,11.087 2.3835,14.97c2.5276,6.184 12.666,1.345 15.6579,2.659c1.9427,0.854 1.3801,2.745 -0.4363,3.149z" fill="#ffffff"></path><path d="M80.219,230.96c-0.9032,-4.462 -5.4913,-14.838 -1.2891,-18.636c1.2342,-1.116 36.7411,-0.279 41.0431,-0.278l97.994,0.002c16.621,-0.003 31.718,-0.416 48.259,-1.078l68.058,-2.783c12.452,-0.701 24.856,-2.043 37.239,-3.487c3.926,-0.458 7.753,-1.169 11.721,-0.982c-1.278,17.144 -2.145,21.776 -19.954,22.915l-13.255,0.855c-71.061,4.553 -142.034,6.628 -213.234,5.718l-32.468,-0.372c-6.3397,-0.049 -18.5193,1.261 -24.114,-1.874z" fill="#abd27a"></path><path d="M252.63,243.646c-11.829,1.81 -39.772,1.812 -51.601,1.34c0.392,-3.214 2.56,-2.068 5.868,-2.128l9.235,-0.206c10.723,-0.302 25.994,-1.515 36.498,-0.574z" fill="#abd27a"></path><path d="M88.2271,242.076c3.4234,-0.182 6.8976,-0.018 10.3252,0.035l71.1817,0.857c2.753,0.027 20.657,-0.291 21.718,0.313c0.234,0.682 0.092,1.006 -0.046,1.703c-22.454,0.727 -45.121,0.827 -67.585,0.524c-9.75,-0.132 -26.956,1.854 -35.5939,-3.432z" fill="#abd27a"></path><path d="M221.524,169.337c-0.054,1.636 0.717,5.017 -0.265,6.281c-0.628,0.807 -1.727,0.883 -2.489,0.207c-1.225,-1.087 -0.9,-11.298 -0.901,-13.082c0,-3.612 -1.02,-6.3 3.655,-6.526c3.272,-1.436 9.517,1.767 8.59,6.566c-0.518,2.679 -2.712,4.019 -4.814,5.43c1.578,1.114 5.461,4.186 6.007,6.091c-0.704,2.632 -2.475,1.561 -4.003,0.365c-1.827,-1.852 -3.77,-3.679 -5.78,-5.332zM222.396,159.908h-0.872c-0.013,3.399 -1.298,7.359 3.205,4.57c3.908,-2.394 1.951,-5.488 -2.333,-4.57z" fill="#ffffff"></path><path d="M192.725,173.862c2.06,0.055 4.994,-0.331 6.722,-0.181c1.124,0.098 1.648,1.866 0.922,2.651c-1.374,1.487 -9.056,1.331 -10.657,-0.087c-2.239,-1.985 -1.744,-10.807 -1.923,-14.138c-0.187,-3.461 1.342,-5.734 4.936,-5.892c2.131,-0.334 10.239,0.376 5.908,3.691c-6.747,0.039 -8.158,-2.757 -7.033,5.481c1.268,-0.104 5.487,-0.32 6.441,0.393c0.999,0.748 0.614,2.469 -0.544,2.847c-1.298,0.423 -4.377,0.098 -5.897,0.151c-0.012,1.354 -0.595,4.972 1.125,5.084z" fill="#ffffff"></path><path d="M206.555,169.88c0.038,1.212 0.748,5.904 -0.87,6.348c-1.165,0.32 -2.249,-0.064 -2.478,-1.336c-0.319,-1.762 -0.728,-16.089 0.1,-17.216c0.727,-0.989 2.305,-1.263 3.444,-1.461c4.574,-0.585 10.289,2.328 8.437,7.612c-0.835,2.385 -2.915,3.372 -5.039,4.384c1.392,2.442 4.54,3.747 5.478,6.457c-0.688,2.35 -2.282,1.961 -3.727,0.556c-1.778,-1.783 -3.538,-3.589 -5.345,-5.344zM207.233,159.906c-1.328,0.296 -0.684,4.226 -0.678,5.712c1.322,-0.195 2.421,-0.494 3.594,-1.142c4.117,-2.992 0.562,-4.552 -2.916,-4.57z" fill="#ffffff"></path><path d="M241.415,175.706c-5.275,0.17 -9.687,-3.97 -9.854,-9.245c-0.166,-5.274 3.977,-9.684 9.252,-9.847c5.271,-0.163 9.676,3.975 9.842,9.245c0.166,5.27 -3.97,9.677 -9.24,9.847zM240.685,160.337c-8.217,1.28 -6.462,13.264 1.137,11.665c7.099,-1.402 6.617,-13 -1.137,-11.665z" fill="#ffffff"></path><path d="M253.453,175.775c-0.586,-0.285 -1.099,-0.658 -1.337,-1.287c-0.264,-0.695 0.343,-16.057 0.596,-16.476c0.544,-0.903 1.923,-1.04 2.854,-1.192c7.569,-0.579 11.794,5.52 3.663,10.811c1.149,1.359 3.683,3.592 4.468,4.911c0.678,1.139 -0.412,4.334 -3.558,1.318c-1.13,-1.277 -2.59,-2.935 -3.911,-3.993l-0.662,-0.532c0.099,2.673 0.83,5.39 -2.113,6.44zM255.937,160.335c0.004,1.677 -0.082,3.378 0,5.05c0.878,-0.523 1.8,-1.019 2.635,-1.608c3.354,-2.518 -0.104,-3.599 -2.635,-3.442z" fill="#ffffff"></path><path d="M174.488,123.832c-0.183,-3.623 0.238,-7.294 -0.059,-10.894c-1.726,-1.197 -24.41,4.535 -31.951,0.464c-8.389,-4.528 -0.191,-13.5883 2.885,-18.7219l15.732,-26.036c3.565,-5.8886 7.871,-14.2434 15.025,-16.0058c9.14,-1.074 7.46,8.4517 7.379,14.3434c-0.138,9.9672 -1.596,25.9367 -0.006,35.5023c2.439,-0.003 11.569,-0.352 9.592,4.453c-0.816,1.984 -7.494,3.305 -9.592,4.014c0.229,6.249 3.027,26.274 -2.323,30.73c-2.004,1.67 -4.535,0.116 -5.772,-1.73c-2.552,-3.808 -1.797,-11.75 -0.91,-16.119zM175.174,60.3727c-4.586,3.5726 -7.355,10.2982 -10.083,15.2697c-1.006,1.8344 -17.278,31.0806 -17.279,31.0866c-0.054,0.334 0.287,0.403 0.573,0.47c8.95,-0.318 18.01,-1.702 26.789,-3.469c-0.777,-7.0019 1.525,-40.43 0.25,-43.2293l-0.336,-0.0629l0.156,-0.0272z" fill="#ffffff"></path><path d="M295.034,111.803c-8.842,1.254 -21.811,6.032 -29.66,1.82c-11.326,-6.079 4.688,-24.3142 9.049,-30.9898c4.414,-6.7574 16.257,-27.9302 24.043,-29.9926c1.729,0.1045 3.725,0.5961 5.065,1.7443c5.877,5.0351 0.248,37.3036 0.897,48.1021c2.149,-0.687 6.738,-1.196 7.903,1.428c2.366,5.331 -5.04,5.586 -8.217,6.898l-0.334,0.14c-0.093,5.756 0.472,26.367 -2.789,29.433c-2.987,2.807 -6.56,-0.54 -7.176,-3.639c-0.76,-3.818 -0.005,-10.877 0.376,-14.936c0.125,-3.336 0.544,-6.682 0.843,-10.008zM297.29,60.3751c-6.224,5.3933 -28.951,44.7349 -27.245,46.7919l0.286,0.034c6.498,0.701 18.424,-2.571 25.663,-3.468c0.597,-5.7013 2.691,-41.7666 1.296,-43.3579z" fill="#ffffff"></path><path d="M230.878,138.87c-14.888,4.345 -24.972,-6.602 -27.56,-20.379c-2.432,-12.952 0.06,-45.974 7.541,-56.791c3.007,-4.3489 7.439,-6.409 12.523,-7.3057c11.969,-1.2672 21.961,5.9258 25.84,17.151c4.44,12.8468 3.945,41.1037 -2.027,53.3247c-3.262,6.676 -9.35,11.612 -16.317,14zM225.817,62.2181c-13.28,1.7806 -14.27,35.6245 -14.352,45.4179c-0.093,10.992 2.526,27.694 17.378,22.702c18.337,-7.081 16.41,-45.3392 11.043,-59.0866c-2.102,-5.3842 -8.061,-9.8952 -14.069,-9.0333z" fill="#ffffff"></path></g></g></g></g></svg>