<svg version="1.1" xmlns="http://www.w3.org/2000/svg" xmlns:xlink="http://www.w3.org/1999/xlink" width="72" height="72" viewBox="0,0,256,256"><g fill="none" fill-rule="nonzero" stroke="none" stroke-width="none" stroke-linecap="none" stroke-linejoin="none" stroke-miterlimit="10" stroke-dasharray="" stroke-dashoffset="0" font-family="none" font-weight="none" font-size="none" text-anchor="none" style="mix-blend-mode: normal"><g transform="translate(-1.78038,-1.77778) scale(3.55556,3.55556)"><path d="M53.946,56.1741c-2.0966,-2.775 -4.8087,-5.0255 -7.9228,-6.5742c-3.1141,-1.5488 -6.5452,-2.3535 -10.0232,-2.3508c-3.478,-0.0027 -6.9091,0.802 -10.0233,2.3508c-3.1141,1.5487 -5.8262,3.7992 -7.9227,6.5742M53.946,56.1741c4.0905,-3.6384 6.9783,-8.4343 8.2805,-13.7517c1.3022,-5.3174 0.9573,-10.905 -0.9891,-16.0219c-1.9464,-5.1168 -5.4023,-9.5211 -9.9092,-12.6287c-4.507,-3.1076 -9.8522,-4.7718 -15.3267,-4.7718c-5.4745,0 -10.8197,1.6642 -15.3267,4.7718c-4.507,3.1076 -7.9628,7.5119 -9.9092,12.6287c-1.94641,5.1169 -2.29138,10.7045 -0.98917,16.0219c1.30217,5.3174 4.18707,10.1133 8.27757,13.7517M53.946,56.1741c-4.9386,4.4036 -11.3294,6.8333 -17.946,6.825c-6.6177,0.009 -13.0067,-2.4207 -17.946,-6.825M45,29.2491c0,2.387 -0.9482,4.6762 -2.6361,6.364c-1.6878,1.6878 -3.977,2.636 -6.3639,2.636c-2.387,0 -4.6762,-0.9482 -6.364,-2.636c-1.6878,-1.6878 -2.636,-3.977 -2.636,-6.364c0,-2.3869 0.9482,-4.6761 2.636,-6.3639c1.6878,-1.6879 3.977,-2.6361 6.364,-2.6361c2.3869,0 4.6761,0.9482 6.3639,2.6361c1.6879,1.6878 2.6361,3.977 2.6361,6.3639z" fill="none" stroke="#ffffff" stroke-width="1.5" stroke-linecap="round" stroke-linejoin="round"></path><rect x="48" y="48" width="16" height="16" rx="8" ry="0" fill="#abd27a" stroke="none" stroke-width="1" stroke-linecap="butt" stroke-linejoin="miter"></rect><path d="M60,56.5h-8c-0.2733,0 -0.5,-0.2267 -0.5,-0.5c0,-0.2733 0.2267,-0.5 0.5,-0.5h8c0.2733,0 0.5,0.2267 0.5,0.5c0,0.2733 -0.2267,0.5 -0.5,0.5z" fill="#ffffff" stroke="none" stroke-width="1" stroke-linecap="butt" stroke-linejoin="miter"></path><path d="M56,60.5c-0.2733,0 -0.5,-0.2267 -0.5,-0.5v-8c0,-0.2733 0.2267,-0.5 0.5,-0.5c0.2733,0 0.5,0.2267 0.5,0.5v8c0,0.2733 -0.2267,0.5 -0.5,0.5z" fill="#ffffff" stroke="none" stroke-width="1" stroke-linecap="butt" stroke-linejoin="miter"></path></g></g></svg>