<svg version="1.1" xmlns="http://www.w3.org/2000/svg" xmlns:xlink="http://www.w3.org/1999/xlink" width="300" height="300" viewBox="0,0,256,256"><g fill="none" fill-rule="nonzero" stroke="none" stroke-width="1" stroke-linecap="butt" stroke-linejoin="miter" stroke-miterlimit="10" stroke-dasharray="" stroke-dashoffset="0" font-family="none" font-weight="none" font-size="none" text-anchor="none" style="mix-blend-mode: normal"><g transform="translate(0.0005,0.00049)"><g><g transform="translate(-0.28195,1.03624) scale(0.85333,0.85333)"><path d="M147.803,29.8541c0.029,-0.026 0.057,-0.0525 0.086,-0.0783l0.145,-0.1277c2.465,-2.211 4.863,-1.2726 5.288,1.8326c-0.117,3.6667 0.907,14.6932 -1.168,17.0938c-6.075,3.0024 -4.361,-7.1476 -4.356,-10.1864c0.005,-2.8235 -0.177,-5.7234 0.005,-8.534z" fill="#ffffff"></path><path d="M153.322,31.4788c6.565,-0.6754 6.003,3.4539 5.83,8.7516c-0.099,3.0165 -0.041,6.7601 -2.205,9.1684c-1.482,1.6486 -3.83,1.1135 -4.792,-0.8262c2.074,-2.4006 1.05,-13.4271 1.167,-17.0938z" fill="#abd27a"></path><path d="M182.096,57.2091c-9.055,1.8557 2.602,-14.7859 3.755,-16.4779c1.561,-2.291 3.708,-1.7804 5.011,0.3692c0.107,3.0616 -6.682,14.104 -8.766,16.1087z" fill="#ffffff"></path><path d="M120.612,56.3382c-0.989,0.7375 -1.946,1.5785 -3.28,1.3175c-1.778,-0.3479 -6.879,-11.2802 -7.771,-13.9313c-0.792,-2.3547 2.687,-7.1403 6.153,-0.032c1.139,2.7377 6.02,10.3424 4.898,12.6458z" fill="#ffffff"></path><path d="M190.862,41.0977c8.854,0.4676 -3.023,17.8882 -3.943,18.5667c-2.238,1.65 -4.438,-0.1735 -4.823,-2.458c2.084,-2.0048 8.873,-13.0472 8.766,-16.1087z" fill="#abd27a"></path><path d="M115.714,43.6958c3.576,-0.7331 7.383,8.9406 7.604,10.6183c0.206,1.5676 -1.496,1.9874 -2.706,2.0275c1.122,-2.3033 -3.759,-9.908 -4.898,-12.6458z" fill="#abd27a"></path><path d="M218.501,61.6211c-1.619,0.6615 -10.895,7.9242 -11.625,9.5133c-0.991,2.158 1.276,4.5293 3.413,3.4875c1.896,-0.9246 9.924,-7.8979 11.348,-9.5778c5.227,5.9989 -8.933,19.3694 -16.466,13.7567c-9.706,-7.2311 4.436,-24.0662 13.33,-17.1797z" fill="#abd27a"></path><path d="M82.6196,62.3255c5.0104,-2.9444 17.4224,8.5787 10.9658,11.1205c0.426,-3.7694 -7.9933,-9.2948 -10.9658,-11.1205z" fill="#abd27a"></path><path d="M221.637,65.0441c-1.424,1.6799 -9.451,8.6532 -11.348,9.5778c-2.137,1.0418 -4.403,-1.3295 -3.413,-3.4875c0.73,-1.5891 10.006,-8.8518 11.625,-9.5133c2.199,0.2601 3.167,1.1648 3.136,3.423z" fill="#ffffff"></path><path d="M93.5852,73.4448c-0.4611,1.0993 -1.5978,1.9993 -2.8453,1.7116c-0.9966,-0.2297 -11.3091,-8.1791 -11.6759,-8.9731c-1.2153,-2.6279 0.9363,-5.0736 3.5554,-3.859c2.9725,1.8258 11.3918,7.3512 10.9658,11.1205z" fill="#ffffff"></path><path d="M121.113,215.203c-1.352,-3.159 -1.33,-6.636 -2.069,-9.951c-3.151,-14.129 -9.838,-21.888 -18.478,-32.786c-9.5002,-11.982 -15.6983,-26.761 -16.3059,-42.147c-1.4502,-36.7239 25.7879,-66.6161 62.6739,-67.9936c48.612,-2.0116 82.922,47.1516 64.331,91.8316c-8.191,19.687 -26.469,29.189 -29.904,51.987c-0.464,3.081 -0.545,6.058 -1.5,9.059c3.166,3.833 3.38,7.925 1.595,12.524c1.823,4.729 2.576,7.674 -1.134,12.057c3.049,9.127 -8.127,15.317 -15.309,17.09c-1.266,6.978 -5.657,9.558 -11.398,12.212c-9.106,0.514 -15.952,-3.088 -18.643,-12.212c-6.76,-3.622 -16.882,-4.93 -14.36,-15.801c-2.56,-3.842 -3.993,-7.952 -1.452,-12.313c-2.65,-4.796 -2.513,-9.882 1.953,-13.557zM191.715,167.593c11.671,-13.759 16.704,-27.356 15.239,-45.422c-2.519,-31.0609 -33.511,-56.2585 -64.303,-53.664c-32.995,2.7803 -55.5092,32.055 -52.5696,64.547c2.9127,32.185 26.3456,41.352 34.0106,69.611c0.679,2.504 0.701,6.079 2.79,7.836c3.979,3.348 9.996,4.852 15.068,5.398c-0.776,-9.981 -0.521,-24.325 -2.255,-33.63c0.274,-8.757 -1.883,-21.227 -3.234,-29.858c-0.468,-2.992 -1.806,-6.28 -1.489,-9.301c-1.969,0.02 -3.99,0.113 -5.954,-0.024c-24.318,-1.697 -24.799,-27.535 -9.512,-27.31c11.47,0.169 16.155,12.375 18.739,21.596c2.506,-0.924 4.989,-1.877 7.397,-3.033c-13.583,-28.84 28.015,-26.579 7.68,0.905c3.223,3.907 9.167,6.915 14.074,7.866c2.666,-5.52 5.351,-11.988 11.584,-14.201c14.702,-5.221 19.211,19.416 -7.915,19.734c-2.786,7.91 -10.358,30.658 -10.035,38.843c-1.322,10.844 -0.516,18.081 0,28.413c3.891,-1.021 7.514,-1.874 11.027,-3.945c0.345,-7.367 1.584,-14.598 4.07,-21.546c2.541,-5.444 5.698,-10.523 9.436,-15.23c1.666,-2.098 5.087,-5.425 6.152,-7.585zM139.695,142.121c0.52,3.707 1.531,7.357 2.186,11.045c1.511,8.508 3.32,22.44 3.187,30.915c1.644,9.148 1.59,22.387 2.499,32.276h8.241c-0.781,-9.439 -1.831,-20.115 0,-29.518c1.019,-13.426 5.717,-25.913 9.727,-38.611c-7.078,-1.695 -11.65,-5.073 -16.968,-9.842c-2.833,1.748 -5.728,2.697 -8.872,3.735zM157.793,225.074c-12.454,-0.43 -20.107,0.447 -32.099,-6.217c-7.794,4.526 0.251,7.675 2.754,9.524c4.58,3.382 19.326,1.849 25.167,2.287c4.014,0.161 29.422,-2.332 22.512,-11.366c-3.484,1.779 -6.782,3.183 -10.592,4.103c-2.405,0.582 -5.585,0.476 -7.742,1.669zM157.793,235.416c-7.403,0.585 -23.433,-1.808 -29.168,-6.656c-9.672,4.014 -5.461,8.096 1.706,10.701c-1.678,0.644 -3.438,1.477 -4.189,3.24c-3.133,7.36 17.673,10.045 21.661,9.961c1.767,0.391 3.734,0.174 5.519,0c6.673,0.147 19.956,-1.875 21.857,-9.904c-5.823,2.051 -11.198,3.408 -17.386,3.88c-7.315,0.145 -13.973,-1.01 -20.919,-3.269c-0.833,-0.271 -5.329,-1.69 -5.675,-2.137c7.385,1.54 15.093,-0.523 20.955,0.61c6.419,-0.563 27.299,-0.87 24.807,-10.918c-6.081,2.714 -12.48,4.381 -19.168,4.492zM150.871,118.644c-3.611,1.859 -2.897,6.588 -2.09,9.837c0.147,0.591 0.522,3.542 1.439,2.118c1.586,-2.476 7.022,-11.83 0.651,-11.955zM118.672,121.027c-3.449,0.697 -5.27,3.534 -4.399,6.983c1.75,6.929 8.906,8.193 14.352,10.15c1.503,-0.013 3.005,-0.026 4.508,0c-1.567,-6.6 -6.033,-17.728 -14.461,-17.133zM182.096,133.461c-4.539,1.239 -7.037,5.531 -8.625,9.649c1.203,-0.087 2.322,-0.178 3.49,-0.488c2.9,-0.895 6.896,-2.281 8.395,-5.189c1.327,-2.574 -0.983,-4.091 -3.26,-3.972zM140.917,257.478c2.606,6.154 10.598,8.258 15.776,3.808c0.96,-0.998 1.727,-2.015 2.407,-3.221c-7.756,0.698 -10.708,0.133 -18.183,-0.587z" fill="#ffffff"></path><path d="M139.695,182.27c-1.897,-0.396 -3.551,-1.56 -5.297,-2.349c-10.025,-4.529 -20.837,-11.04 -26.57,-20.762c-15.1221,-25.645 -2.993,-56.948 21.652,-71.3219c23.288,-13.5826 53.917,-7.5991 67.641,16.3109c12.28,21.398 6.81,45.305 -11.288,61.236c-1.619,1.426 -3.38,2.678 -5.014,4.083c-11.362,9.771 -16.369,21.789 -16.478,36.397c-0.007,1.013 0.326,2.011 -0.409,2.789l-0.3,-0.001c-2.343,-2.408 -1.077,-17.12 0.082,-20.65c-0.895,-0.167 -1.793,-0.327 -2.684,-0.515c-0.323,-8.184 7.249,-30.932 10.035,-38.842c27.126,-0.318 22.617,-24.956 7.915,-19.734c-6.233,2.213 -8.918,8.681 -11.584,14.2c-4.907,-0.95 -10.851,-3.959 -14.074,-7.865c20.335,-27.485 -21.263,-29.745 -7.68,-0.905c-2.408,1.156 -4.891,2.109 -7.396,3.032c-2.584,-9.22 -7.27,-21.426 -18.74,-21.595c-15.286,-0.225 -14.806,25.613 9.512,27.309c1.964,0.138 3.985,0.044 5.954,0.024c-0.317,3.022 1.021,6.309 1.489,9.302c1.351,8.631 3.508,21.1 3.234,29.857zM164.348,88.8086c-2.43,1.1261 -4.607,4.3277 -3.27,7.0031c1.623,3.2461 15.684,4.0676 23.163,15.8243c2.403,3.778 3.107,6.932 8.352,5.638c2.007,-1.21 3.196,-2.39 3.894,-4.676c-4.237,-10.973 -19.488,-24.7779 -32.139,-23.7894zM196.32,120.422c-2.604,0.434 -4.355,2.906 -3.9,5.506c0.455,2.6 2.941,4.331 5.537,3.855c2.567,-0.47 4.274,-2.922 3.824,-5.492c-0.449,-2.571 -2.887,-4.298 -5.461,-3.869zM195.796,132.576c-1.408,0.96 -1.616,6.692 -2.321,8.786c-1.226,3.636 -6.142,9.13 -0.882,9.939c1.781,-2.1 9.933,-19.135 3.203,-18.725zM188.392,151.301c-0.676,0.476 -1.248,0.974 -1.719,1.661c-0.396,2.863 -0.03,4.138 3.083,4.091c3.073,-1.115 1.743,-5.759 -1.364,-5.752z" fill="#abd27a"></path><path d="M226.789,102.464c-5.256,3.49 -10.829,-2.452 -5.714,-7.3684c3.852,-3.7014 14.035,-6.8027 18.405,-2.2096c-1.47,0.8034 -21.273,5.287 -12.691,9.578z" fill="#abd27a"></path><path d="M60.6077,93.449c7.7226,-3.4605 24.597,5.8418 14.8968,8.519c0.2971,-1.478 0.2438,-2.6555 -1.18,-3.4459c-2.8108,-1.5604 -10.4854,-4.0149 -13.7168,-5.0731z" fill="#abd27a"></path><path d="M239.48,92.8867c2.996,0.9451 4.164,4.2516 0.761,5.7492c-2.165,0.9528 -11.459,4.4761 -13.452,3.8281c-8.582,-4.2904 11.221,-8.774 12.691,-9.5773z" fill="#ffffff"></path><path d="M58.1694,97.9937c-1.2937,-2.3794 -0.1877,-4.2937 2.4383,-4.5445c3.2315,1.0582 10.9061,3.5127 13.7168,5.0731c1.4239,0.7904 1.4772,1.9677 1.1801,3.4457c-0.7746,0.779 -1.3459,1.099 -2.4129,1.368c-3.1101,-0.795 -12.5121,-3.8581 -14.9223,-5.3423z" fill="#ffffff"></path><path d="M150.22,130.599c-0.917,1.424 -1.292,-1.527 -1.439,-2.118c-0.807,-3.249 -1.522,-7.978 2.09,-9.836c6.371,0.124 0.935,9.478 -0.651,11.954z" fill="#abd27a"></path><path d="M128.625,138.16c-5.446,-1.957 -12.602,-3.221 -14.352,-10.151c-0.871,-3.448 0.95,-6.285 4.399,-6.982c8.428,-0.595 12.894,10.533 14.461,17.133c-1.503,-0.026 -3.004,-0.013 -4.508,0z" fill="#abd27a"></path><path d="M226.789,132.576c-4.017,-8.539 14.123,-7.04 18.374,-0.883c-3.868,-0.635 -11.129,-1.809 -15.013,-1.771c-2.23,0.022 -2.644,0.65 -3.361,2.654z" fill="#abd27a"></path><path d="M73.0915,131.692c-2.2623,-2.577 -3.9955,-1.792 -7.1268,-1.439c-3.6146,0.409 -7.2076,1.027 -10.8128,1.439c4.6054,-4.678 18.9855,-7.221 17.9396,0z" fill="#abd27a"></path><path d="M55.152,131.692c3.6053,-0.412 7.1983,-1.03 10.8129,-1.439c3.1313,-0.353 4.8645,-1.138 7.1268,1.439c-0.3803,1.022 -0.8361,2.502 -1.9277,2.983c-1.5727,0.693 -14.6413,2.495 -16.1047,1.827c-2.327,-1.063 -2.0422,-3.842 0.0927,-4.81z" fill="#ffffff"></path><path d="M245.163,131.694c3.122,0.948 2.368,3.885 0,5.116c-3.569,0.093 -7.36,-0.664 -10.913,-1.096c-2.661,-0.324 -6.654,0.148 -7.461,-3.137c0.717,-2.004 1.131,-2.633 3.361,-2.654c3.884,-0.038 11.145,1.136 15.013,1.771z" fill="#ffffff"></path><path d="M173.471,143.112c1.588,-4.117 4.086,-8.41 8.625,-9.648c2.277,-0.119 4.587,1.397 3.26,3.972c-1.499,2.908 -5.495,4.293 -8.395,5.188c-1.168,0.31 -2.287,0.401 -3.49,0.488z" fill="#abd27a"></path><path d="M145.068,184.081c0.133,-8.475 -1.676,-22.407 -3.187,-30.915c-0.655,-3.688 -1.666,-7.337 -2.186,-11.045c3.144,-1.038 6.039,-1.987 8.872,-3.734c5.318,4.769 9.89,8.147 16.968,9.842c-4.01,12.697 -8.708,25.184 -9.727,38.61c-3.508,-0.381 -7.069,-2.247 -10.74,-2.758z" fill="#abd27a"></path><path d="M219.403,159.373c3.939,-2.045 13.384,3.802 14.806,7.144c-3.175,-0.665 -11.218,-5.574 -14.806,-7.144z" fill="#abd27a"></path><path d="M80.1211,160.122c-2.4229,0.663 -13.8598,6.124 -15.7529,7.47c0.7089,-4.701 11.2365,-10.379 15.7529,-7.47z" fill="#abd27a"></path><path d="M232.934,172.128c-3.266,-1.096 -6.239,-2.913 -9.327,-4.409c-2.382,-1.154 -8.187,-2.692 -6.439,-6.512c0.48,-1.046 1.186,-1.467 2.235,-1.836c3.588,1.57 11.631,6.479 14.806,7.145c2.471,2.151 1.849,4.966 -1.275,5.612z" fill="#ffffff"></path><path d="M64.3681,167.596c1.8931,-1.346 13.33,-6.807 15.7529,-7.471c10.6559,3.028 -11.8629,11.379 -13.7256,12.005c-2.0543,-1.149 -2.9238,-2.192 -2.0273,-4.534z" fill="#ffffff"></path><path d="M172.057,193.94c2.809,-9.755 11.018,-20.783 19.658,-26.346c-1.065,2.16 -4.486,5.487 -6.152,7.585c-3.738,4.707 -6.895,9.785 -9.436,15.229c-1.244,0.825 -1.998,2.9 -2.656,4.196c-0.812,0.389 -0.945,-0.001 -1.414,-0.664z" fill="#abd27a"></path><path d="M173.471,194.605c-0.659,1.378 -1.142,2.812 -1.742,4.213l0.057,0.165l-0.092,-0.001l-0.08,0.173l-0.146,-0.141c-0.177,-1.678 0.283,-3.427 0.589,-5.073c0.469,0.663 0.602,1.053 1.414,0.664z" fill="#abd27a"></path><path d="M157.793,225.073c2.157,-1.193 5.337,-1.087 7.742,-1.668c3.81,-0.921 7.108,-2.325 10.592,-4.104c6.91,9.034 -18.497,11.528 -22.512,11.366c0.873,-0.951 2.975,-1.417 4.178,-1.907c-0.994,-0.048 -1.962,-0.048 -2.955,0c-0.633,-0.098 -0.682,-0.482 -0.854,-1.033c1.189,-0.736 2.205,-1.768 3.526,-2.288l-0.099,0.12l0.18,-0.405l0.182,0.006l0.064,-0.085l-0.001,0.089l-0.057,0.021z" fill="#abd27a"></path><path d="M150.871,229.734c0.968,-0.924 1.897,-1.472 3.113,-2.007c0.172,0.551 0.221,0.935 0.854,1.033c-0.852,0.38 -1.124,0.612 -1.516,1.461z" fill="#abd27a"></path><path d="M154.838,228.762c0.993,-0.047 1.961,-0.048 2.955,0c-1.203,0.491 -3.305,0.957 -4.178,1.908l-0.293,-0.446c0.392,-0.849 0.664,-1.081 1.516,-1.462z" fill="#181914"></path><path d="M157.793,235.418c6.688,-0.111 13.087,-1.778 19.168,-4.492c2.492,10.049 -18.388,10.356 -24.806,10.918c0.38,-1.903 2.601,-1.728 4.042,-2.381c0.904,-0.305 1.779,-0.688 2.562,-1.236c-1.417,0.257 -2.759,0.839 -4.144,1.236c-1.055,-0.144 -2.027,-0.099 -3.08,0c2.338,-1.86 5.007,-2.373 6.989,-3.865l-0.062,-0.101z" fill="#abd27a"></path><path d="M154.615,239.463c1.384,-0.398 2.727,-0.98 4.144,-1.236c-0.783,0.547 -1.658,0.931 -2.562,1.236c-0.461,-0.185 -1.09,-0.048 -1.582,0z" fill="#181914"></path><path d="M157.793,246.637c6.188,-0.472 11.563,-1.828 17.386,-3.879c-1.901,8.028 -15.184,10.05 -21.857,9.903c-1.785,0.175 -3.752,0.392 -5.519,0l4.882,-1.021h0.637c1.456,-0.708 2.929,-1.201 4.471,-1.683h-1.985c-1.043,0.014 -1.38,-0.538 -1.193,-1.52c1.058,-0.601 2.14,-1.163 3.178,-1.8z" fill="#abd27a"></path><path d="M150.871,251.077c0.204,-1.252 2.73,-2.127 3.744,-2.639c-0.186,0.981 0.15,1.533 1.193,1.519c-1.618,0.394 -3.355,0.654 -4.937,1.12z" fill="#abd27a"></path><path d="M155.808,249.957h1.985c-1.542,0.482 -3.015,0.975 -4.471,1.683h-0.637c-0.557,-0.377 -1.167,-0.445 -1.814,-0.563c1.582,-0.467 3.319,-0.726 4.937,-1.12z" fill="#181914"></path></g></g></g></g></svg>