<svg version="1.1" xmlns="http://www.w3.org/2000/svg" xmlns:xlink="http://www.w3.org/1999/xlink" width="300" height="300" viewBox="0,0,256,256"><g fill="none" fill-rule="nonzero" stroke="none" stroke-width="1" stroke-linecap="butt" stroke-linejoin="miter" stroke-miterlimit="10" stroke-dasharray="" stroke-dashoffset="0" font-family="none" font-weight="none" font-size="none" text-anchor="none" style="mix-blend-mode: normal"><g transform="translate(0.12824,0.38389) scale(0.85333,0.85333)"><path d="M53.2123,56.0335c3.6839,-0.1946 7.355,-0.6144 11.0318,-0.9187c37.6009,-3.113 76.9619,-4.6171 114.7599,-4.5782l59.623,-0.0073c10.145,0.0009 12.7,-1.9492 12.369,9.6442l-2.169,99.0935c-0.122,5.618 0.066,11.226 -0.212,16.843c-0.27,5.464 -9.281,3.217 -12.623,3.097l-28.832,-0.941c-3.644,-0.095 -8.389,-0.658 -11.921,-0.212l-0.231,0.031c-0.504,3.175 0.243,6.165 0.243,9.343c0.001,11.467 -9.494,9.406 -17.538,8.988c-2.652,-0.137 -5.313,-0.194 -7.967,-0.28c7.501,15.811 17.639,30.389 24.857,46.817c1.253,2.853 0.428,4.672 -2.518,5.741c-3.939,-0.28 -4.033,-3.244 -5.387,-6.282c-3.376,-7.576 -7.621,-14.699 -11.545,-21.992l-12.883,-24.284h-9.625c-0.12,5.306 0.362,10.665 0.64,15.963l1.004,21.451c0.187,3.782 0.767,7.814 0.588,11.583c-0.19,3.997 -6.654,4.452 -7.285,0.417c-0.645,-4.128 -0.359,-13.891 -0.389,-18.344c0.032,-2.358 -0.128,-4.74 -0.196,-7.099l-0.401,-15.028c-0.093,-2.981 -0.281,-5.959 -0.26,-8.943c-1.419,0.257 -2.871,0.402 -4.301,0.588c-2.16,3 -3.722,7.07 -5.34,10.425c-4.469,9.265 -8.83,18.565 -13.427,27.77l-3.54,7.065c-1.425,2.832 -2.929,7.393 -7.043,5.627c-4.274,-1.835 -0.147,-7.427 1.137,-9.649c7.533,-13.04 13.781,-27.668 20.451,-41.238c-6.605,-0.372 -17.748,1.703 -22.805,-3.16c-4.115,-3.958 -3.035,-10.385 -3.219,-15.479c-11.2399,-0.435 -44.4585,2.711 -49.5479,0.695c-2.9736,-1.177 -2.7614,-5.864 -3.0372,-8.461l-1.0755,-10.726c-3.0579,-29.149 -5.2876,-60.5684 -5.2244,-89.7228c0.008,-3.6786 0.8729,-8.6057 -0.6982,-11.9859c1.726,-1.6731 1.7777,-3.956 4.5365,-1.8508zM182.875,177.701c-19.375,-0.395 -38.355,-0.733 -57.78,-0.056c-1.602,0.056 -3.343,-0.122 -4.924,0.056c-1.772,0.084 -3.59,0.065 -5.338,0.384c-0.198,5.865 -1.17,11.151 5.338,11.446c2.974,0.759 21.978,-0.186 25.63,-0.348c12.367,-0.547 24.712,0.418 37.074,0.348c9.297,0.127 4.911,-1.186 5.063,-11.83c-1.688,0.108 -3.375,0.1 -5.063,0zM195.008,57.2754c-3.078,0.2604 -6.051,0.2049 -9.13,0.2304l-11.19,0.1314c-1.262,0.0077 -2.527,-0.0763 -3.788,-0.0342l-30.128,0.7606c-19.619,0.5478 -39.297,1.2919 -58.8777,2.6442l-17.3848,1.1338c-2.7082,0.2004 -5.6209,0.2022 -8.2584,0.8608c-0.2207,3.484 0.0159,7.0347 0.0957,10.524c0.7466,32.6216 2.959,66.5376 6.5748,99.0466c2.7141,-0.149 5.4322,-0.144 8.1481,-0.26l19.7707,-0.825c4.224,-0.142 11.1316,-0.031 15.0196,-0.831c7.08,0.052 14.118,-0.219 21.195,-0.299c38.341,-0.431 76.594,0.987 114.909,2.215c0.343,-4.453 0.137,-8.945 0.26,-13.408l1.875,-92.357c0.05,-3.0439 0.287,-6.2056 0.016,-9.2397c-6.44,-0.5492 -13.032,-0.2983 -19.493,-0.2946z" fill="#ffffff"></path><path d="M145.835,64.042c8.206,0.0099 16.049,-0.5022 24.14,-0.5971l60.608,-0.4429h7.6c0.002,6.873 0.117,13.7677 -0.017,20.6384l-1.63,69.8466c-0.142,4.314 -0.763,8.608 -0.358,12.924c-6.986,0.735 -17.67,-0.237 -24.764,-0.592c-10.965,-0.548 -21.974,-0.322 -32.926,-1.074c-7.386,-0.508 -28.224,0.44 -31.255,-0.593l-0.03,-0.289c0.362,-0.68 0.846,-1.299 1.297,-1.92c8.487,-11.684 9.473,-33.338 7.962,-47.872c-1.422,-13.669 -4.916,-27.0966 -8.361,-40.3733c-0.829,-3.1952 -1.746,-6.3932 -2.266,-9.6557zM214.598,78.7982c-3.704,0.2004 -7.498,-0.0035 -11.212,-0.0041l-23.392,0.0059c-3.09,0 -12.86,-1.4197 -12.408,2.5031c0.21,1.8258 1.866,2.492 3.467,2.7041c0.115,1.3371 -0.241,2.86 1.376,3.1406c-1.477,5.6872 -1.128,12.0604 -1.437,17.9182c-0.394,7.492 -0.786,13.667 -0.818,21.269c-0.021,4.768 -0.954,12.736 4.145,15.365c6.368,6.753 28.814,1.97 38.482,2.676c10.798,0.788 9.716,0.918 9.675,-11.679c-0.04,-12.041 -0.662,-24.078 -0.767,-36.1191c-0.077,-8.8125 0.795,-22.4402 -12.8,-19.3066c1.98,0.2191 3.876,0.6914 5.689,1.5269z" fill="#abd27a"></path><path d="M214.598,78.7983c-1.813,-0.8356 -3.709,-1.3078 -5.688,-1.527c13.595,-3.1336 12.723,10.4942 12.799,19.3067c0.105,12.041 0.728,24.078 0.767,36.119c0.041,12.597 1.124,12.467 -9.675,11.679c-9.668,-0.706 -32.114,4.077 -38.482,-2.676c-1.883,-4.495 -1.313,-8.986 -1.329,-13.747l0.095,-15.746c0.041,-5.002 0.803,-23.7343 -0.291,-25.1031l-0.364,0.044c-1.618,-0.2807 -1.262,-1.8035 -1.377,-3.1407c-0.05,-3.7611 1.622,-5.7972 2.35,-0.7927c8.667,-0.4043 18.84,-0.3727 27.657,-0.4899c4.173,0.6164 11.703,-0.5091 16.46,-0.3433c-0.26,-0.6487 -0.533,-1.2604 -0.865,-1.8768c-0.652,-0.6422 -1.309,-1.1801 -2.057,-1.7062zM193.965,87.4684l-10.285,-0.392c-2.032,-0.0797 -4.101,-0.2432 -6.133,-0.191c-0.015,0.6556 -0.094,1.3781 0,2.0256c1.456,10.6207 1.289,21.479 1.285,32.179l-0.005,8.126c-0.002,1.969 -0.089,4.042 0.177,5.998c0.096,0.857 0.15,2.633 0.947,3.154c2.604,1.697 21.93,-0.569 28.052,-0.62c2.884,-0.055 5.775,0.048 8.652,0.236c-0.066,-1.041 -0.051,-2.054 0,-3.096l0.076,-25.638c-0.034,-6.371 0.042,-12.6592 0.21,-19.0195c0.07,-1.0992 0.003,-2.2412 0,-3.3451c-7.37,-0.17 -15.385,0.5947 -22.976,0.583z" fill="#ffffff"></path><path d="M216.655,80.5039c0.332,0.6164 0.605,1.2281 0.865,1.8768c-4.757,-0.1659 -12.287,0.9597 -16.459,0.3433c3.814,-1.1513 11.511,-1.824 15.594,-2.2201z" fill="#abd27a"></path><path d="M193.965,87.469c7.591,0.0117 15.606,-0.7529 22.976,-0.583c0.003,1.1039 0.071,2.2459 0,3.3451c-2.072,3.7008 -3.772,26.0589 -3.21,32.6119c0.138,1.596 1.761,11.314 2.819,12.026l0.105,0.019c-0.051,1.043 -0.065,2.055 0,3.097c-2.877,-0.188 -5.768,-0.291 -8.652,-0.237c-3.221,-2.176 -24.063,-2.568 -28.999,-2.534c-0.266,-1.955 -0.179,-4.029 -0.177,-5.998l0.005,-8.125c0.004,-10.7 0.171,-21.5587 -1.285,-32.1794c4.09,-0.0358 12.691,-0.1412 16.418,-1.4426z" fill="#abd27a"></path><path d="M108.728,96.8973c-10.918,0.0059 -22.2043,0.5947 -32.934,0.491c-1.6523,-0.0158 -5.3349,-2.4685 -3.6996,-4.2691c1.7537,-1.9313 33.0296,-2.9871 37.6226,-2.8899c7.982,-0.5806 19.118,-0.0843 27.101,0.228c3.883,0.1523 6.688,-0.9815 9.017,2.7492c-0.075,5.7187 -4.769,4.5955 -8.76,4.4127l-8.608,-0.368c-6.582,-0.2953 -13.153,-0.3369 -19.739,-0.3539z" fill="#ffffff"></path><path d="M105.285,117.03c-6.4311,-0.302 -13.1911,0.319 -19.6077,0.78c-3.3281,0.24 -8.1257,1.608 -10.9951,-0.741c-0.7412,-0.607 -1.3998,-1.923 -0.5842,-2.734c2.277,-2.266 33.693,-3.952 41.203,-4.305c7.417,-0.062 14.838,-0.052 22.249,0.264c3.079,0.131 9.204,-0.79 9.372,3.816c0.194,5.306 -5.918,4.095 -9.216,3.865c-10.796,-0.755 -21.6,-0.982 -32.421,-0.945z" fill="#ffffff"></path><path d="M94.1659,137.985c-3.1676,1.133 -16.2334,3.588 -16.9963,-2.128c-0.3316,-2.486 8.6361,-2.446 10.309,-2.626c11.8324,-1.273 22.8114,-1.571 34.4634,-2.41c4.834,-0.034 9.792,-0.192 14.616,0.09c3.467,0.202 4.736,4.575 1.969,6.709c-1.528,1.177 -19.849,0.349 -23.246,0.355l-13.256,0.022c-2.6155,0.028 -5.254,0.305 -7.8591,-0.012z" fill="#ffffff"></path><path d="M120.17,177.701c1.582,-0.178 3.323,0 4.925,-0.057c19.425,-0.676 38.404,-0.338 57.779,0.057c1.059,4.186 1.285,7.64 0,11.83c-12.362,0.07 -24.707,-0.895 -37.073,-0.348c-3.653,0.162 -22.656,1.107 -25.631,0.348c-2.516,-3.231 -1.17,-8.32 0,-11.83z" fill="#abd27a"></path></g></g></svg>