<svg version="1.1" xmlns="http://www.w3.org/2000/svg" xmlns:xlink="http://www.w3.org/1999/xlink" width="300" height="300" viewBox="0,0,256,256"><g fill="none" fill-rule="nonzero" stroke="none" stroke-width="1" stroke-linecap="butt" stroke-linejoin="miter" stroke-miterlimit="10" stroke-dasharray="" stroke-dashoffset="0" font-family="none" font-weight="none" font-size="none" text-anchor="none" style="mix-blend-mode: normal"><g transform="translate(-12.99097,0.38339) scale(0.85333,0.85333)"><path d="M194.348,127.751c1.613,-6.755 7.91,-16.096 8.714,-23.002c-3.419,-2.286 -6.24,-0.806 -9.539,-6.7074c-3.77,-6.7465 -9.26,-36.0691 -3.893,-42.8733c7.284,-9.2336 43.015,-14.1042 55.291,-15.4701c20.998,-1.8096 22.795,26.4292 22.405,41.5147c-0.195,7.5399 -1.703,13.8967 -8.562,17.9168c-6.274,3.6763 -18.236,5.8083 -25.491,6.4103c-11.335,0.941 -7.213,-1.41 -15.467,6.272l-18.3,17.144c-2.21,2.103 -4.292,1.69 -5.158,-1.205zM244.921,44.6181c-9.285,0.4318 -45.132,6.1714 -51.326,12.9985c-4.459,4.9155 1.393,36.8321 5.914,40.5885c3.471,2.8839 9.671,0.0774 10.069,3.3109c0.159,1.297 -3.691,9.73 -4.468,11.643l-0.826,2.083l10.505,-10.086c7.264,-6.9421 4.534,-5.5066 14.495,-6.3784c6.71,-0.5877 19.476,-2.6414 25.215,-6.1606c5.375,-3.2947 5.262,-9.0914 5.36,-14.7773c0.119,-6.9106 -1.146,-25.8033 -6.03,-30.8429c-2.242,-2.3132 -5.824,-2.8118 -8.908,-2.3787z" fill="#ffffff"></path><path d="M113.668,64.01c5.319,-10.2461 17.101,-15.9589 28.322,-16.6135c1.22,-0.1073 2.459,-0.03 3.679,0.0466c23.971,1.5065 41.936,19.554 40.273,44.0356c-0.498,7.3172 -3.465,19.5133 -9.312,24.5963c-3.077,11.466 -4.502,19.532 -11.175,30.343c-1.912,3.097 -4.395,5.764 -6.324,8.817l-0.146,0.233c2.165,9.122 6.377,8.874 14.55,11.809c10.063,3.615 28.107,9.885 34.16,17.428c5.399,6.729 9.52,31.149 10.361,40.225c0.724,7.809 1.306,18.004 -5.563,23.388c-13.813,10.827 -81.048,12.892 -104.206,9.96c-11.2463,-1.244 -22.6375,-3.581 -33.4715,-6.823c-5.1181,-1.531 -7.9482,-1.532 -10.0435,-7.046c-4.3488,-11.445 0.4008,-45.04 6.0439,-57.468c4.5364,-9.989 32.9761,-17.81 43.1761,-21.61c3.622,-1.349 5.804,-2.999 7.427,-6.551c-9.436,-7.711 -15.485,-23.101 -17.245,-35.151c-0.209,-1.435 -0.316,-2.887 -0.802,-4.264c-4.4504,-2.872 -7.8494,-8.492 -10.0127,-13.241c-7.2639,-15.9496 -1.7988,-31.5279 14.2027,-38.7672c-7.036,-1.173 -12.1472,-0.6339 -18.0154,3.2789c-4.7127,3.1424 -7.1701,-2.0285 0.0785,-5.9091c7.3541,-3.9369 16.3539,-3.0522 24.0429,-0.7166zM171.482,68.084c-17.755,-24.6894 -62.267,-11.4051 -50.967,7.0693c2.276,6.0674 8.592,9.8666 14.029,12.7149c10.325,3.8285 17.692,3.8179 28.509,3.8039c-0.726,-0.9768 -1.504,-2.1158 -2.64,-2.6502c-3.596,-2.7293 -14.823,-3.184 -11.333,-7.8504c1.267,-1.694 4.35,-0.8356 6.043,-0.4975c7.45,1.4877 13.395,5.277 16.859,12.0979c2.056,3.8086 2.763,7.9571 3.388,12.1811c1.432,-4.931 4.025,-13.8721 3.215,-18.8831c-0.06,-5.4041 -3.413,-14.0092 -7.103,-17.9859zM116.441,79.8115c-1.557,-3.3556 -2.71,-6.8847 -3.316,-10.541c-19.3022,8.5131 -22.2753,22.3324 -11.851,40.4155c0.44,1.417 1.372,2.821 2.098,4.116c-0.032,-2.922 -0.393,-13.329 1.55,-15.2153c2.243,-2.1779 3.728,0.5825 3.365,3.3923c-0.186,1.257 -0.051,2.66 0,3.929c7.294,-3.537 12.835,-8.9004 16.742,-16.0101l-1.059,-0.876c-3.024,-2.8395 -5.304,-5.7258 -7.529,-9.2104zM168.167,173.703c-0.914,-0.377 -1.853,-0.835 -2.798,-1.116c-13.599,29.714 -16.979,47.514 -20.396,79.75c1.615,-0.163 3.283,-0.253 4.882,-0.514c9.839,-0.379 20.679,-1.561 30.46,-3.145l0.009,-23.703c0.001,-2.614 -0.377,-9.975 0.263,-11.975c1.188,-3.713 5.627,-2.545 6.77,0.498c0.648,9.991 0.813,23.555 0.294,33.739c0.877,-0.004 1.755,-0.018 2.631,0c5.554,-1.779 16.716,-1.995 19,-8.127c3.951,-10.606 -1.633,-37.123 -5.888,-46.429c-4.379,-9.579 -25.84,-15.491 -35.227,-18.978zM115.923,177.808c-0.483,-1.613 -0.978,-3.222 -1.732,-4.735c-7.495,2.667 -33.2917,10.423 -36.4891,17.188c-5.0321,10.648 -8.8553,40.102 -6.1641,50.01c0.1576,0.866 0.4324,1.664 0.7986,2.462c3.675,1.745 13.145,3.902 17.0262,4.504c0.3199,-8.98 -0.8783,-19.227 -0.9111,-28.484c-0.0088,-2.315 -0.7354,-5.687 0.6205,-7.752c2.1732,-3.31 6.4646,-1.557 6.924,2.497c0.1828,7.137 0.2508,14.287 0.5994,21.418l0.5514,9.721c0.0738,1.549 0.2203,3.141 0.1459,4.689c0.6744,-0.001 1.3564,-0.026 2.0297,0c11.7336,2.616 27.7436,3.025 39.6326,3.011c-1.795,-18.66 -9.527,-47.393 -17.686,-63.289c-1.868,-3.639 -4.022,-7.157 -5.293,-11.072zM128.584,92.7719c-5.87,11.1171 -9.567,13.0731 -21.022,17.6351c1.5,14.782 7.13,33.006 19.028,42.726c5.749,4.696 13.461,6.289 19.979,2.335c14.775,-9.588 26.992,-38.666 19.971,-56.5004c-10.241,1.3284 -22.402,0.7933 -31.956,-2.9842c-2.147,-0.8478 -3.933,-2.3098 -6,-3.2115zM152.276,161.109c-6.753,4.128 -16.558,6.142 -23.692,1.79c-3.69,4.245 -3.866,4.59 -8.069,8.328c2.088,4.309 6.002,7.599 10.064,9.989c11.548,6.093 21.487,5.472 27.726,-6.734c0.673,-1.315 1.278,-2.764 2.108,-3.981c-2.353,-1.543 -4.971,-3.368 -6.363,-5.9c-0.4,-0.726 -1.168,-3.296 -1.774,-3.492zM125.498,187.319c7.119,14.775 13.315,33.77 16.007,50.172c1.098,-3.703 1.324,-7.578 2.053,-11.35c2.049,-12.307 5.431,-23.954 9.442,-35.72c-11.201,4.592 -17.964,0.788 -27.502,-3.102z" fill="#ffffff"></path><path d="M208.618,69.8761c-1.743,1.3576 -6.232,5.9285 -7.077,1.0764c-0.359,-2.0649 2.927,-3.5936 4.282,-4.541c8.573,-5.9942 17.531,-8.4128 27.777,-9.7212c2.311,-0.1871 11.559,-0.9472 9.514,3.802c-0.898,2.0871 -4.38,1.0559 -6.041,1.0277c-7.629,-0.1277 -15.693,1.977 -22.499,5.2729c-1.988,0.9621 -3.892,2.3432 -5.956,3.0832z" fill="#ffffff"></path><path d="M120.515,75.1532c3.324,-18.76 34.253,-19.6102 47.499,-9.6838c1.171,0.8777 2.089,2.0355 3.468,2.6144c3.69,3.9768 7.043,12.5819 7.103,17.986c-0.084,2.8758 -4.225,4.9793 -6.603,6.7019c-3.464,-6.8209 -9.409,-10.6101 -16.859,-12.0978c-1.693,-0.3381 -4.776,-1.1965 -6.043,0.4974c-3.49,4.6664 7.737,5.1211 11.333,7.8504c-2.598,2.9051 -21.826,-2.3355 -25.869,-1.1537c-5.437,-2.8482 -11.753,-6.6474 -14.029,-12.7148z" fill="#abd27a"></path><path d="M215.691,76.185c-1.483,0.9228 -7.922,7.0564 -8.303,1.3406c-0.131,-1.9547 3.374,-3.8842 4.708,-4.7701c7.008,-4.6559 14.37,-6.7951 22.659,-7.6992c2.278,-0.1922 12.461,-1.091 11.362,3.3802c-0.726,2.9508 -5.873,1.4028 -8.01,1.4209c-7.864,0.0651 -15.72,2.1932 -22.416,6.3276z" fill="#ffffff"></path><path d="M224.65,81.1569c-1.789,0.8233 -5.32,4.452 -7.327,3.0422c-7.135,-5.0144 14.739,-10.4736 17.432,-10.8099c2.061,-0.2584 12.781,-0.4993 11.13,3.8736c-1.085,2.8705 -3.746,1.442 -6.048,1.166c-5.252,-0.6305 -10.404,0.6451 -15.187,2.7281z" fill="#ffffff"></path><path d="M116.44,79.8125c2.226,3.4846 4.506,6.3709 7.53,9.2103c-1.931,1.5252 -3.208,3.4594 -4.823,5.2805c-2.591,2.9215 -10.413,9.6297 -10.86,7.6767c0.363,-2.8099 -1.122,-5.5702 -3.365,-3.3923c-1.943,1.8863 -1.582,12.2933 -1.55,15.2153c-0.726,-1.295 -1.659,-2.699 -2.098,-4.116c0.038,-0.946 -0.447,-2.241 -0.619,-3.197c-2.4021,-13.3398 4.917,-20.1912 15.785,-26.6775z" fill="#abd27a"></path><path d="M231.9,87.8684c-6.09,3.0633 -9.286,-3.5391 2.302,-5.6467c2.042,-0.2561 7.653,-0.3012 5.932,3.416c-0.88,1.9031 -5.388,1.1778 -8.234,2.2307z" fill="#ffffff"></path><path d="M178.585,86.0703c0.81,5.011 -1.783,13.9527 -3.215,18.8827c-0.625,-4.224 -1.333,-8.3721 -3.388,-12.1807c2.378,-1.7227 6.519,-3.8262 6.603,-6.702z" fill="#508826"></path><path d="M134.544,87.8681c4.043,-1.1818 23.271,4.0588 25.869,1.1537c1.136,0.5344 1.914,1.6735 2.64,2.6502c-10.817,0.0141 -18.184,0.0246 -28.509,-3.8039z" fill="#508826"></path><path d="M123.97,89.0215l1.059,0.876c-3.907,7.1097 -9.448,12.4735 -16.742,16.0105c-0.051,-1.27 -0.186,-2.673 0,-3.93c0.447,1.954 8.269,-4.7546 10.86,-7.6761c1.615,-1.821 2.892,-3.7552 4.823,-5.2804z" fill="#508826"></path><path d="M168.167,173.703c9.387,3.487 30.848,9.399 35.227,18.978c4.255,9.306 9.839,35.823 5.888,46.429c-2.284,6.131 -13.446,6.348 -19.001,8.127c-0.543,-5.304 0.534,-17.928 0.9,-23.629c0.172,-2.666 0.642,-5.287 0.388,-7.961c-0.896,-1.702 -2.481,-1.814 -4.213,-2.149c-1.142,-3.043 -5.581,-4.211 -6.77,-0.498c-0.639,1.999 -0.261,9.361 -0.263,11.974l-0.008,23.703c-9.781,1.585 -20.621,2.767 -30.46,3.146c-0.267,-3.826 0.531,-7.493 0.956,-11.273c2.688,-23.918 9.16,-44.194 17.356,-66.847z" fill="#abd27a"></path><path d="M71.5376,240.271c0.3668,-1.432 0.2355,-3.26 0.3234,-4.759c0.5297,-9.003 5.0262,-31.258 9.4746,-39.704c4.384,-8.322 24.7234,-14.948 34.5864,-17.999l0.054,0.168c1.271,3.914 3.424,7.433 5.293,11.072c8.159,15.896 15.891,44.629 17.685,63.288c-11.888,0.015 -27.898,-0.394 -39.6318,-3.01l-0.0024,-23.579c-0.0035,-3.101 0.3117,-7.146 0.0024,-10.1c-0.7594,-1.773 -1.3618,-2.125 -3.3264,-2.149c-0.4594,-4.054 -4.7508,-5.808 -6.924,-2.498c-1.3559,2.066 -0.6293,5.438 -0.6205,7.753c0.0328,9.257 1.231,19.504 0.9111,28.483c-3.8813,-0.601 -13.3512,-2.759 -17.0262,-4.504c-0.3662,-0.798 -0.641,-1.595 -0.7986,-2.462z" fill="#abd27a"></path></g></g></svg>