<svg xmlns="http://www.w3.org/2000/svg" width="501" height="332" fill="none" viewBox="0 0 501 332">
  <path fill="#253017" d="M96.106 263.12c-30.999-2.215-29.714-28.218-31.334-52.917-3.545-54.068-1.544-102.302.728-155.899.583-13.756 3.793-25.534 19.017-30.425 5.453-1.75 11.254-1.646 16.92-1.931l17.165-.723 159.763-3.392c16.425-.098 118.494-.518 130.759 5.887 6.115 3.193 10.103 8.882 12.158 15.346 2.015 14.03 2.943 28.386 4.072 42.518 3.786 47.415 5.165 95.154 1.646 142.626-1.15 15.514-4.686 29.441-23.55 31.895-11.523 1.498-26.802 1.943-38.538 2.471-5.262.236-10.788.136-16 .882-21.119.409-42.199 2.47-63.333 2.47v2.896l.019.266c1.494 18.228 37.615 45.75-2.224 47.666-19.732.951-40.669 1.857-60.404 1.949-34.524.16-24.603-11.01-17.895-34.052 1.394-4.79 2.243-9.491 3.181-14.373.151-.757.305-1.11.051-1.851-1.153-.656-20.614-.311-23.607-.34l-77.371-.931c-3.726-.058-7.502-.237-11.223-.038Zm320.671-41.694c.232-2.426.812-4.697 1.149-7.089-28.974 5.214-69.824 5.649-99.387 6.722l-91.156 3.136c-10.587.276-21.1.402-31.698.402l-43.573-.003c-15.832-.003-31.649-.008-47.479-.355l-17.39-.39c-3.683-.08-7.443-.331-11.11.051.984 10.669.982 21.207 11.268 27.136 6.081 3.408 19.32 1.983 26.211 2.037l35.292.404c77.39.989 154.535-1.267 231.775-6.215l14.408-.929c19.358-1.238 20.3-6.273 21.69-24.907Zm-141.973 43.398v-1.704c-11.417-1.024-28.016.294-39.671.624l-10.038.223c-3.596.066-5.953-1.18-6.379 2.313-1.766 9.24-3.942 18.544-7.196 27.379-.748 2.032-3.473 7.986-2.99 9.85 3.56 3.693 60.419-.304 67.942-.375 23.78-.222 16.348-1.098 8.155-14.258-4.607-7.402-7.955-15.539-9.823-24.052Zm6.171-236.38c-9.585-.006-19.232-.21-28.813.017l-110.467 2.734c-12.187.425-24.39.706-36.568 1.29-31.3 1.5-27.878 6.2-29.47 31.834l-1.976 34.955c-1.188 25.507-1.154 51.202-.423 76.724.352 12.297 1.63 24.574 1.976 36.863 9.364 1.404 19.828.574 29.339.88 7.239.234 14.382.442 21.621.471l83.851.125c3.954.023 7.877-.302 11.826-.401l30.283-.845c48.133-1.336 96.368-2.857 144.383-6.665 5.86-.465 15.329-.941 20.793-2.244l.165-.17-.157-.187.218-.094.035-.226-.28-.065-.023-.357.369-.154c2.749-50.224-.337-100.738-5.187-150.734-1.724-17.774-3.284-19.791-22.623-21.353-35.398-2.86-73.145-2.91-108.872-2.399Z"/>
  <path fill="#508826" d="M421.282 39.065c3.476 1.362 6.433 4.3 7.914 7.724 2.032 4.697 4.007 37.75 4.644 47.35l1.577 27.365c.68 12.466.855 24.94 1.114 37.416.398 19.197 1.948 77.426-3.368 90.687-6.304 15.724-18.944 15.237-32.591 15.228l-21.209-.013c-17.294-.009-34.653.347-51.939.001H285.58v-2.896c21.133 0 42.213-2.061 63.332-2.47 5.213-.746 10.738-.646 16-.882 11.736-.528 27.015-.973 38.538-2.471 18.864-2.454 22.4-16.381 23.55-31.895 3.519-47.472 2.14-95.211-1.646-142.626-1.129-14.132-2.057-28.488-4.072-42.518Z"/>
  <path fill="#253017" d="M401.028 57.205c-.007-2.491.051-5.214-.793-7.59-4.059-11.428-20.945-4.275-24.928-6.38-1.038-.547-1.443-1.604-.688-2.58 1.182-1.529 7.444-1.22 9.418-1.456 9.703-.706 18.48.954 20.572 11.962.293 1.541 1.245 10.135.712 11.07-2.3 4.034-4.162-2.885-4.293-5.026Zm-150.81 96.523c-19.549 3.225-28.657-11.353-30.288-28.867-1.839-19.752.738-61.387 27.199-63.837 5.461-1.397 12.791 1.493 17.152 4.706 23.286 17.16 17.017 83.651-14.063 87.998Zm-3.089-83.202c-18.565 4.419-19.538 47.707-16.127 61.378 2.476 9.922 9.529 13.249 19.216 11.822 24.017-8.814 25.934-75.974-3.089-73.2Z"/>
  <path fill="#253017" d="m311.716 153.729-.659.011c-23.121.2-27.978-18.012-27.823-38.078.148-19.315 5.397-54.951 31.056-54.638 38.296-.569 37.774 88.414-2.574 92.705Zm1.126-82.578c-17.369.877-20.327 38.5-19.601 50.642.82 13.729 4.477 23.049 19.601 21.934 20.182-5.971 22.239-41.439 17.423-57.557-1.83-6.125-9.962-18.447-17.423-15.02ZM153.79 137.45c2.658.661 4.456 2.355 6.717 3.789 15.406 9.773 45.093.044 39.956-21.284-2.95-12.245-18.686-15.117-29.191-12.194-4.109 1.144-12.365 5.784-13.387-1.831-.74-5.516 1.162-38.291 4.629-41.914 2.516-2.627 30.786-2.685 35.606-2.993 2.943-.048 9.217-.89 11.531.981 2.048 1.656 2.108 5.153.426 7.08-2.444 2.8-34.485 2.862-39.962 3.376-1.629 8.341-2.62 17.287-2.54 25.784 14.882-3.85 35.446-.234 41.352 16.038 10.895 30.028-24.677 49.582-52.29 36.322-5.316-3.079-13.39-10.738-2.847-13.154Zm-52.84 68.711c-5.057.671-11.75 1.814-16.382-.695-5.594-3.03-4.44-10.593-4.495-15.847-.024-2.222-1.273-5.433 1.74-6.043 3.787.268.866 12.052 2.591 16.272 2.748 6.721 13.768 1.462 17.02 2.89 2.111.928 1.5 2.984-.474 3.423Z"/>
  <path fill="#ABD27A" d="M87.401 251.035c-.981-4.85-5.968-16.127-1.4-20.256 1.34-1.213 39.935-.303 44.611-.302l106.516.002c18.066-.003 34.475-.452 52.455-1.172l73.976-3.025c13.534-.761 27.018-2.22 40.477-3.789 4.267-.498 8.427-1.272 12.741-1.068-1.39 18.634-2.332 23.669-21.69 24.907l-14.408.929c-77.24 4.949-154.385 7.204-231.775 6.215l-35.292-.404c-6.891-.054-20.13 1.371-26.21-2.037Zm187.403 13.789c-12.857 1.967-43.23 1.969-56.088 1.457.426-3.494 2.784-2.248 6.379-2.314l10.038-.223c11.656-.329 28.254-1.648 39.671-.624v1.704Zm-178.698-1.706c3.72-.198 7.497-.019 11.223.038l77.371.932c2.993.029 22.454-.316 23.607.34.254.741.1 1.093-.051 1.851-24.406.79-49.044.9-73.462.569-10.597-.143-29.299 2.016-38.689-3.73Z"/>
  <path fill="#253017" d="M240.994 184.394c-.059 1.778.779 5.453-.289 6.826-.682.878-1.876.961-2.705.226-1.332-1.181-.978-12.28-.979-14.22-.001-3.926-1.109-6.847 3.973-7.093 3.556-1.561 10.345 1.921 9.336 7.136-.563 2.913-2.947 4.369-5.232 5.903 1.715 1.211 5.936 4.55 6.529 6.62-.765 2.861-2.69 1.697-4.351.397-1.986-2.013-4.097-3.999-6.282-5.795Zm.947-10.249h-.947c-.015 3.694-1.411 7.998 3.484 4.967 4.247-2.601 2.12-5.965-2.537-4.967Zm-32.251 15.169c2.239.06 5.428-.36 7.307-.196 1.222.106 1.791 2.028 1.002 2.881-1.494 1.617-9.844 1.447-11.583-.095-2.434-2.156-1.896-11.745-2.091-15.366-.203-3.762 1.458-6.233 5.365-6.404 2.316-.363 11.129.408 6.422 4.012-7.334.042-8.868-2.998-7.644 5.957 1.378-.114 5.963-.348 7 .427 1.087.813.668 2.684-.591 3.094-1.411.46-4.757.107-6.409.164-.014 1.473-.648 5.404 1.222 5.526Zm15.033-4.327c.041 1.317.813 6.417-.946 6.899-1.267.348-2.444-.069-2.694-1.452-.346-1.915-.791-17.487.109-18.713.79-1.074 2.506-1.372 3.743-1.588 4.973-.636 11.184 2.531 9.172 8.275-.909 2.591-3.17 3.664-5.478 4.764 1.513 2.655 4.935 4.073 5.955 7.018-.748 2.555-2.481 2.133-4.052.605-1.932-1.938-3.845-3.901-5.809-5.808Zm.737-10.842c-1.444.322-.744 4.594-.737 6.208 1.436-.211 2.631-.536 3.906-1.24 4.475-3.253.611-4.948-3.169-4.968Zm37.154 17.172c-5.733.184-10.529-4.316-10.71-10.049-.181-5.733 4.322-10.526 10.056-10.703 5.729-.177 10.517 4.321 10.697 10.049.181 5.728-4.315 10.518-10.043 10.703Zm-.793-16.705c-8.932 1.391-7.024 14.417 1.235 12.678 7.716-1.523 7.192-14.13-1.235-12.678Zm13.878 16.781c-.637-.309-1.195-.715-1.454-1.399-.286-.755.374-17.452.648-17.907.592-.982 2.09-1.131 3.102-1.297 8.228-.629 12.821 6.001 3.982 11.752 1.249 1.477 4.003 3.903 4.856 5.338.737 1.238-.448 4.71-3.867 1.433-1.228-1.389-2.815-3.191-4.25-4.341l-.721-.579c.108 2.906.903 5.859-2.296 7Zm2.7-16.781c.004 1.822-.09 3.672 0 5.489.955-.569 1.956-1.108 2.864-1.748 3.646-2.737-.113-3.912-2.864-3.741Z"/>
</svg>
