<svg xmlns="http://www.w3.org/2000/svg" width="375" height="298" fill="none" viewBox="0 0 375 298">
  <path fill="#253017" d="M33.263 246.337C2.265 244.119 3.55 218.078 1.93 193.342-1.615 139.196.386 90.89 2.657 37.215 3.24 23.438 6.45 11.642 21.675 6.745c5.452-1.754 11.254-1.649 16.92-1.935l17.165-.723L215.522.69c16.426-.1 118.495-.52 130.76 5.895 6.114 3.198 10.103 8.895 12.157 15.368 2.016 14.052 2.944 28.429 4.073 42.581 3.786 47.486 5.165 95.295 1.646 142.837-1.15 15.537-4.686 29.484-23.551 31.941-11.522 1.501-26.801 1.946-38.538 2.475-5.261.237-10.787.136-16 .883-21.118.41-42.198 2.474-63.332 2.474v2.9l.019.267c1.494 18.254 37.615 45.817-2.224 47.736-19.732.952-40.669 1.859-60.404 1.951-34.525.161-24.604-11.026-17.896-34.101 1.395-4.797 2.243-9.506 3.182-14.394.15-.759.305-1.112.051-1.854-1.154-.657-20.614-.311-23.608-.341l-77.37-.933c-3.726-.057-7.503-.236-11.224-.038Zm320.671-41.754c.233-2.431.813-4.704 1.15-7.1-28.975 5.222-69.824 5.657-99.387 6.732l-91.156 3.141a1213.27 1213.27 0 0 1-31.698.402l-43.574-.003c-15.832-.003-31.648-.008-47.478-.355l-17.391-.391c-3.683-.08-7.442-.332-11.11.051.985 10.684.983 21.238 11.269 27.176 6.081 3.413 19.32 1.986 26.21 2.04l35.292.404c77.391.991 154.536-1.268 231.776-6.224l14.408-.93c19.357-1.24 20.3-6.282 21.689-24.943Zm-141.972 43.461v-1.707c-11.417-1.025-28.016.296-39.671.625l-10.038.224c-3.596.066-5.953-1.182-6.379 2.317-1.767 9.253-3.942 18.57-7.196 27.418-.748 2.035-3.473 7.999-2.991 9.866 3.561 3.698 60.419-.306 67.943-.376 23.78-.223 16.347-1.1 8.155-14.279-4.607-7.413-7.955-15.562-9.823-24.088Zm6.171-236.728c-9.585-.006-19.233-.21-28.813.017L78.853 14.071c-12.187.426-24.39.707-36.568 1.292-31.3 1.503-27.879 6.209-29.47 31.88L10.839 82.25c-1.188 25.545-1.154 51.278-.424 76.837.353 12.315 1.631 24.61 1.977 36.917 9.364 1.407 19.828.575 29.338.882 7.24.234 14.383.442 21.622.472l83.851.125c3.954.022 7.877-.302 11.826-.402l30.282-.846c48.134-1.338 96.369-2.861 144.383-6.675 5.861-.466 15.329-.942 20.794-2.247l.165-.17-.157-.187.218-.095.035-.226-.28-.065-.024-.357.369-.155c2.749-50.298-.337-100.886-5.186-150.956-1.724-17.8-3.284-19.82-22.623-21.385-35.399-2.863-73.146-2.913-108.872-2.402Z"/>
  <path fill="#508826" d="M358.439 21.951c3.477 1.365 6.434 4.308 7.915 7.737 2.032 4.703 4.006 37.805 4.644 47.418l1.576 27.406c.681 12.484.856 24.977 1.114 37.472.399 19.225 1.949 77.539-3.368 90.82-6.303 15.747-18.943 15.259-32.591 15.251l-21.208-.014c-17.294-.009-34.653.348-51.939.001h-41.845v-2.9c21.134 0 42.214-2.064 63.332-2.474 5.213-.747 10.739-.646 16-.883 11.737-.529 27.016-.974 38.538-2.475 18.865-2.457 22.401-16.404 23.551-31.941 3.519-47.542 2.14-95.351-1.646-142.837-1.129-14.152-2.057-28.529-4.073-42.58Z"/>
  <path fill="#253017" d="M338.186 40.12c-.008-2.495.051-5.221-.793-7.6-4.06-11.446-20.945-4.282-24.928-6.39-1.039-.548-1.443-1.607-.688-2.584 1.182-1.53 7.444-1.223 9.418-1.458 9.703-.707 18.48.956 20.572 11.98.292 1.543 1.244 10.15.712 11.086-2.3 4.04-4.162-2.89-4.293-5.033ZM38.107 189.296c-5.056.672-11.75 1.816-16.381-.696-5.595-3.035-4.44-10.608-4.496-15.87-.023-2.225-1.272-5.441 1.741-6.052 3.787.268.866 12.069 2.591 16.296 2.747 6.731 13.768 1.463 17.02 2.894 2.111.929 1.5 2.988-.475 3.428Z"/>
  <path fill="#ABD27A" d="M24.559 234.236c-.982-4.857-5.969-16.151-1.401-20.286 1.341-1.214 39.936-.303 44.612-.302l106.515.002c18.067-.003 34.476-.453 52.455-1.174l73.977-3.029c13.534-.763 27.017-2.224 40.476-3.795 4.268-.499 8.428-1.274 12.742-1.069-1.39 18.661-2.332 23.703-21.69 24.943l-14.408.93c-77.24 4.956-154.385 7.215-231.775 6.225l-35.292-.405c-6.891-.054-20.13 1.373-26.211-2.04Zm187.403 13.809c-12.858 1.97-43.231 1.972-56.088 1.459.426-3.499 2.783-2.251 6.379-2.317l10.038-.224c11.655-.329 28.254-1.65 39.671-.625v1.707Zm-178.699-1.709c3.721-.199 7.498-.02 11.223.038l77.371.933c2.993.029 22.454-.317 23.608.34.254.742.099 1.095-.051 1.854-24.406.791-49.044.901-73.462.57-10.598-.144-29.3 2.019-38.689-3.735Z"/>
  <path fill="#253017" d="M178.152 167.157c-.06 1.78.779 5.461-.289 6.836-.682.879-1.877.962-2.705.226-1.332-1.183-.979-12.298-.979-14.24-.001-3.932-1.109-6.858 3.973-7.105 3.556-1.562 10.344 1.924 9.336 7.148-.563 2.916-2.947 4.374-5.233 5.911 1.716 1.213 5.937 4.556 6.53 6.63-.765 2.865-2.69 1.7-4.351.398-1.986-2.017-4.098-4.006-6.282-5.804Zm.947-10.265h-.947c-.015 3.7-1.411 8.01 3.483 4.975 4.247-2.605 2.121-5.974-2.536-4.975Zm-32.251 15.193c2.239.06 5.428-.36 7.306-.196 1.222.106 1.792 2.03 1.003 2.885-1.494 1.619-9.844 1.449-11.584-.095-2.433-2.16-1.896-11.763-2.091-15.389-.202-3.768 1.459-6.242 5.366-6.413 2.316-.364 11.129.408 6.422 4.017-7.334.042-8.868-3.002-7.644 5.966 1.378-.114 5.963-.349 7 .428 1.086.814.668 2.688-.591 3.099-1.411.46-4.758.106-6.409.164-.014 1.475-.648 5.412 1.222 5.534Zm15.033-4.334c.04 1.319.813 6.427-.947 6.91-1.266.348-2.443-.07-2.693-1.455-.346-1.918-.792-17.512.109-18.74.79-1.076 2.506-1.374 3.743-1.59 4.973-.637 11.184 2.534 9.171 8.286-.908 2.596-3.169 3.67-5.478 4.772 1.514 2.658 4.936 4.079 5.956 7.028-.748 2.559-2.482 2.136-4.052.606-1.932-1.941-3.846-3.907-5.809-5.817Zm.737-10.857c-1.444.322-.744 4.6-.737 6.217 1.436-.211 2.631-.537 3.905-1.243 4.476-3.257.611-4.955-3.168-4.974Zm37.154 17.196c-5.733.185-10.53-4.322-10.711-10.063-.181-5.742 4.323-10.542 10.057-10.719 5.728-.177 10.516 4.327 10.697 10.064.18 5.736-4.315 10.533-10.043 10.718Zm-.793-16.729c-8.932 1.393-7.024 14.438 1.235 12.697 7.716-1.526 7.192-14.151-1.235-12.697Zm13.878 16.805c-.637-.31-1.195-.717-1.454-1.401-.286-.757.373-17.478.648-17.935.591-.982 2.09-1.131 3.102-1.298 8.227-.63 12.82 6.01 3.982 11.769 1.248 1.48 4.002 3.91 4.856 5.346.737 1.24-.448 4.717-3.867 1.435-1.229-1.391-2.815-3.196-4.251-4.347l-.72-.58c.107 2.911.902 5.868-2.296 7.011Zm2.7-16.807c.004 1.825-.09 3.678 0 5.498.954-.57 1.956-1.11 2.864-1.751 3.646-2.741-.114-3.917-2.864-3.747Zm-88.532-39.735c-.199-3.944.259-7.94-.064-11.857-1.876-1.304-26.532 4.935-34.73.504-9.118-4.928-.207-14.791 3.137-20.38l17.1-28.34c3.874-6.41 8.555-15.504 16.331-17.423 9.935-1.169 8.109 9.2 8.021 15.614-.15 10.85-1.735 28.232-.007 38.645 2.651-.003 12.575-.383 10.426 4.847-.886 2.159-8.145 3.598-10.426 4.369.249 6.802 3.29 28.6-2.525 33.451-2.178 1.817-4.929.126-6.274-1.884-2.773-4.144-1.953-12.789-.989-17.546Zm.746-69.076c-4.985 3.888-7.995 11.21-10.96 16.62-1.093 1.998-18.78 33.833-18.781 33.839-.06.364.311.44.622.512 9.728-.346 19.577-1.853 29.119-3.776-.845-7.622 1.658-44.01.271-47.056l-.365-.069.17-.03-.076-.04Zm130.283 55.982c-9.611 1.366-23.708 6.567-32.24 1.981-12.311-6.616 5.096-26.466 9.836-33.732 4.798-7.356 17.671-30.403 26.134-32.648 1.879.114 4.048.649 5.506 1.899 6.388 5.48.269 40.606.974 52.36 2.336-.748 7.325-1.302 8.591 1.555 2.571 5.802-5.478 6.08-8.932 7.509l-.363.152c-.101 6.265.513 28.7-3.032 32.038-3.246 3.056-7.129-.587-7.8-3.961-.825-4.156-.005-11.84.41-16.258.135-3.631.591-7.274.916-10.895Zm2.452-55.98c-6.765 5.871-31.469 48.696-29.614 50.934l.311.038c7.062.762 20.026-2.8 27.894-3.776.649-6.206 2.925-45.464 1.409-47.196Zm-72.187 85.442c-16.183 4.73-27.144-7.186-29.957-22.184-2.644-14.097.066-50.043 8.197-61.817 3.268-4.734 8.085-6.977 13.611-7.953 13.01-1.38 23.871 6.45 28.088 18.67 4.826 13.984 4.288 44.742-2.203 58.045-3.546 7.267-10.164 12.64-17.736 15.239Zm-5.502-83.438c-14.435 1.939-15.51 38.779-15.6 49.44-.1 11.965 2.746 30.145 18.889 24.711 19.932-7.708 17.838-49.353 12.004-64.317-2.285-5.861-8.762-10.772-15.293-9.834Z"/>
</svg>
