<svg xmlns="http://www.w3.org/2000/svg" width="22" height="25" fill="none" viewBox="0 0 22 25">
  <path fill="#253017" d="M10.655 6.276c-.256-1.396.403-2.832 1.198-3.8C12.729 1.41 14.23.59 15.516.5c.217 1.463-.38 2.888-1.166 3.897-.843 1.083-2.293 1.923-3.695 1.879Zm7.533 5.056c.397-1.109 1.184-2.106 2.405-2.78-1.234-1.54-2.966-2.434-4.602-2.434-2.163 0-3.078 1.031-4.58 1.031-1.549 0-2.723-1.03-4.597-1.03-1.838 0-3.794 1.12-5.035 3.032-.456.707-.765 1.586-.933 2.564-.468 2.745.23 6.32 2.314 9.494 1.013 1.54 2.364 3.276 4.128 3.29 1.571.016 2.017-1.004 4.144-1.014 2.13-.012 2.535 1.025 4.104 1.01 1.764-.015 3.19-1.935 4.202-3.475.722-1.105.994-1.663 1.555-2.913-2.852-1.075-4.025-4.218-3.105-6.775Z"/>
</svg>
