<svg xmlns="http://www.w3.org/2000/svg" width="25" height="25" fill="none" viewBox="0 0 25 25">
  <path fill="#4285F4" d="M24.5 12.766c0-.987-.081-1.707-.258-2.454H12.745v4.454h6.748c-.136 1.107-.87 2.773-2.503 3.893l-.023.15 3.635 2.759.252.024C23.167 19.5 24.5 16.42 24.5 12.767Z"/>
  <path fill="#34A853" d="M12.745 24.5c3.306 0 6.082-1.067 8.109-2.907L16.99 18.66c-1.034.706-2.422 1.2-4.245 1.2a7.358 7.358 0 0 1-6.966-4.987l-.144.012-3.78 2.867-.049.134c2.014 3.92 6.15 6.614 10.939 6.614Z"/>
  <path fill="#FBBC05" d="M5.779 14.873A7.254 7.254 0 0 1 5.37 12.5c0-.827.15-1.627.394-2.374l-.007-.159L1.93 7.055l-.125.058A11.816 11.816 0 0 0 .5 12.5c0 1.933.476 3.76 1.306 5.386l3.973-3.013Z"/>
  <path fill="#EB4335" d="M12.745 5.14c2.3 0 3.85.973 4.735 1.787l3.455-3.307C18.813 1.687 16.051.5 12.745.5 7.955.5 3.82 3.193 1.806 7.113l3.96 3.014c.993-2.894 3.74-4.987 6.979-4.987Z"/>
</svg>
